<svg width="32" height="32" viewBox="0 0 32 32" fill="none" xmlns="http://www.w3.org/2000/svg">
<path d="M30.1016 16C30.1016 18.7689 29.2805 21.4757 27.7421 23.778C26.2038 26.0803 24.0173 27.8747 21.4591 28.9343C18.901 29.9939 16.086 30.2712 13.3703 29.731C10.6546 29.1908 8.16001 27.8574 6.20207 25.8995C4.24414 23.9416 2.91077 21.447 2.37057 18.7313C1.83038 16.0155 2.10763 13.2006 3.16726 10.6424C4.22688 8.08426 6.02129 5.89777 8.32358 4.35943C10.6259 2.82109 13.3326 2 16.1016 2" stroke="#1D2B5F" stroke-width="3.77539" stroke-linecap="round" stroke-linejoin="round"/>
<path d="M30.1016 5.49756L17.3382 18.2609C17.1759 18.4234 16.9831 18.5524 16.7709 18.6404C16.5587 18.7284 16.3313 18.7737 16.1016 18.7737C15.8718 18.7737 15.6444 18.7284 15.4322 18.6404C15.22 18.5524 15.0272 18.4234 14.8649 18.2609L10.8516 14.2499" stroke="#1D2B5F" stroke-width="3.77539" stroke-linecap="round" stroke-linejoin="round"/>
</svg>
