<svg width="43" height="42" viewBox="0 0 43 42" fill="none" xmlns="http://www.w3.org/2000/svg">
<path d="M0 5.40786C0 4.0474 0.477775 2.92504 1.43329 2.04078C2.3888 1.15648 3.631 0.714355 5.15983 0.714355C6.66138 0.714355 7.87623 1.14967 8.80447 2.02038C9.75998 2.91826 10.2378 4.08821 10.2378 5.5303C10.2378 6.83632 9.77366 7.92465 8.84542 8.79535C7.88991 9.69324 6.63406 10.1422 5.07793 10.1422H5.03697C3.53542 10.1422 2.32057 9.69324 1.39233 8.79535C0.464098 7.89746 0 6.76829 0 5.40786ZM0.532363 41.1193V13.8562H9.62349V41.1193H0.532363ZM14.6605 41.1193H23.7516V25.8961C23.7516 24.9437 23.8608 24.2091 24.0792 23.6921C24.4614 22.767 25.0415 21.9848 25.8196 21.3454C26.5977 20.706 27.5737 20.3863 28.7476 20.3863C31.8053 20.3863 33.3341 22.4405 33.3341 26.5491V41.1193H42.4253V25.4879C42.4253 21.461 41.4697 18.4068 39.5587 16.3254C37.6476 14.2439 35.1223 13.2032 31.9827 13.2032C28.461 13.2032 25.7172 14.7133 23.7516 17.7334V17.8151H23.7106L23.7516 17.7334V13.8562H14.6605C14.7151 14.7268 14.7424 17.4341 14.7424 21.978C14.7424 26.5218 14.7151 32.9023 14.6605 41.1193Z" fill="white"/>
</svg>
