<svg width="34" height="28" viewBox="0 0 34 28" fill="none" xmlns="http://www.w3.org/2000/svg">
<path d="M2.07896 12.5226C2.07896 12.5226 16.6714 6.53391 21.7323 4.42512C23.6724 3.58168 30.2516 0.882424 30.2516 0.882424C30.2516 0.882424 33.2882 -0.298397 33.0351 2.56943C32.9507 3.75037 32.276 7.88341 31.6012 12.354C30.589 18.6802 29.4925 25.5968 29.4925 25.5968C29.4925 25.5968 29.3238 27.5369 27.8898 27.8743C26.4559 28.2116 24.0941 26.6934 23.6724 26.3559C23.3349 26.103 17.3462 22.3072 15.1531 20.4515C14.5626 19.9454 13.8879 18.9333 15.2374 17.7523C18.274 14.9688 21.901 11.5105 24.0941 9.31745C25.1063 8.3052 26.1184 5.94344 21.901 8.81126C15.9122 12.9444 10.0078 16.8245 10.0078 16.8245C10.0078 16.8245 8.65817 17.6679 6.12772 16.9088C3.59716 16.1497 0.644928 15.1375 0.644928 15.1375C0.644928 15.1375 -1.37934 13.8723 2.07896 12.5226V12.5226Z" fill="#F5F7FF"/>
</svg>
