<svg width="58" height="58" viewBox="0 0 58 58" fill="none" xmlns="http://www.w3.org/2000/svg">
<path d="M32.5999 16.4L19.7359 29.2641C19.6102 29.3899 19.5246 29.5502 19.4899 29.7247C19.4552 29.8992 19.4731 30.08 19.5411 30.2444C19.6092 30.4087 19.7244 30.5492 19.8723 30.6481C20.0201 30.747 20.194 30.7999 20.3719 30.8001H25.4119V41.6001L38.2759 28.7361C38.4016 28.6102 38.4872 28.4499 38.5219 28.2754C38.5565 28.1009 38.5387 27.9201 38.4707 27.7557C38.4026 27.5914 38.2874 27.4509 38.1395 27.352C37.9917 27.2531 37.8178 27.2002 37.6399 27.2001H32.5999V16.4Z" stroke="#1D2B5F" stroke-width="2.2" stroke-linecap="round" stroke-linejoin="round"/>
<path d="M2.2376 32.6001C2.0794 31.4066 2.00003 30.204 2 29.0001C2 21.8392 4.84464 14.9716 9.90814 9.90814C14.9716 4.84464 21.8392 2 29.0001 2" stroke="#1D2B5F" stroke-width="2.2" stroke-linecap="round" stroke-linejoin="round"/>
<path d="M55.7625 32.6001C55.9215 31.4067 56.0016 30.204 56.0025 29.0001C56.0025 25.4542 55.304 21.943 53.947 18.667C52.5899 15.3911 50.6009 12.4145 48.0935 9.90729C45.586 7.40007 42.6093 5.41131 39.3332 4.05457C36.0571 2.69783 32.5459 1.99968 29 2" stroke="#1D2B5F" stroke-width="2.2" stroke-linecap="round" stroke-linejoin="round"/>
<path d="M53.758 39.7808C52.8814 41.8237 51.744 43.7444 50.374 45.4952" stroke="#1D2B5F" stroke-width="2.2" stroke-linecap="round" stroke-linejoin="round"/>
<path d="M45.1692 50.6146C43.4015 51.9595 41.465 53.0666 39.4092 53.9074" stroke="#1D2B5F" stroke-width="2.2" stroke-linecap="round" stroke-linejoin="round"/>
<path d="M18.6467 53.9074C16.5903 53.0679 14.6536 51.9607 12.8867 50.6146" stroke="#1D2B5F" stroke-width="2.2" stroke-linecap="round" stroke-linejoin="round"/>
<path d="M7.67388 45.4952C6.30006 43.7453 5.15932 41.8244 4.28027 39.7808" stroke="#1D2B5F" stroke-width="2.2" stroke-linecap="round" stroke-linejoin="round"/>
<path d="M32.6004 55.7622C30.2109 56.079 27.7899 56.079 25.4004 55.7622" stroke="#1D2B5F" stroke-width="2.2" stroke-linecap="round" stroke-linejoin="round"/>
</svg>
