<svg width="46" height="51" viewBox="0 0 46 51" fill="none" xmlns="http://www.w3.org/2000/svg">
<path d="M20.707 25.2774L29.5966 16.3878" stroke="#1D2B5F" stroke-width="2.2" stroke-linecap="round" stroke-linejoin="round"/>
<path d="M29.5967 16.3882L30.8084 8.38821L37.7375 1.57861L38.8084 7.17648L44.4063 8.24741L37.5967 15.1765L29.5967 16.3882V16.3882Z" stroke="#1D2B5F" stroke-width="2.2" stroke-linecap="round" stroke-linejoin="round"/>
<path d="M42.1239 20.2731C43.2545 24.5591 42.9864 29.0942 41.3586 33.2171C39.7308 37.34 36.8284 40.835 33.0748 43.1926C29.3211 45.5502 24.9124 46.6469 20.4917 46.323C16.0709 45.999 11.8693 44.2712 8.49939 41.3916C5.12953 38.512 2.76772 34.6311 1.75837 30.315C0.749011 25.9988 1.1449 21.4731 2.8883 17.3977C4.63171 13.3223 7.63145 9.91047 11.4501 7.65967C15.2687 5.40887 19.7066 4.43684 24.1164 4.88533" stroke="#1D2B5F" stroke-width="2.2" stroke-linecap="round" stroke-linejoin="round"/>
<path d="M32.8805 22.8844C33.4417 25.1472 33.283 27.5287 32.4263 29.697C31.5697 31.8653 30.0579 33.7123 28.1017 34.9805C26.1455 36.2488 23.8423 36.8751 21.5132 36.7721C19.1841 36.6692 16.9452 35.8421 15.1085 34.4063C13.2717 32.9704 11.9288 30.9972 11.2668 28.7618C10.6048 26.5264 10.6567 24.1402 11.4153 21.9357C12.174 19.7312 13.6015 17.8184 15.4989 16.4638C17.3964 15.1092 19.6692 14.3803 22.0005 14.3788" stroke="#1D2B5F" stroke-width="2.2" stroke-linecap="round" stroke-linejoin="round"/>
<path d="M11.1078 43.1785L9.50781 49.5785" stroke="#1D2B5F" stroke-width="2.2" stroke-linecap="round" stroke-linejoin="round"/>
<path d="M33.5078 43.1785L35.1078 49.5785" stroke="#1D2B5F" stroke-width="2.2" stroke-linecap="round" stroke-linejoin="round"/>
</svg>
