<svg width="32" height="32" viewBox="0 0 32 32" fill="none" xmlns="http://www.w3.org/2000/svg">
<path d="M29.9286 1H2.07143C1.47969 1 1 1.47969 1 2.07143V4.21429C1 4.80602 1.47969 5.28571 2.07143 5.28571H29.9286C30.5203 5.28571 31 4.80602 31 4.21429V2.07143C31 1.47969 30.5203 1 29.9286 1Z" stroke="#1D2B5F" stroke-width="1.5" stroke-linecap="round" stroke-linejoin="round"/>
<path d="M3.14307 5.28564H28.8574V24.5714H3.14307V5.28564Z" stroke="#1D2B5F" stroke-width="1.5" stroke-linecap="round" stroke-linejoin="round"/>
<path d="M16 29.5715V24.5715" stroke="#1D2B5F" stroke-width="1.5" stroke-linecap="round" stroke-linejoin="round"/>
<path d="M1 24.5715H31" stroke="#1D2B5F" stroke-width="1.5" stroke-linecap="round" stroke-linejoin="round"/>
<path d="M18.1426 31.0001C18.1426 30.2101 17.1826 29.5715 15.9998 29.5715C14.8169 29.5715 13.8569 30.2101 13.8569 31.0001" stroke="#1D2B5F" stroke-width="1.5" stroke-linecap="round" stroke-linejoin="round"/>
<path d="M9.57129 20.2856H22.4284" stroke="#1D2B5F" stroke-width="1.5" stroke-linecap="round" stroke-linejoin="round"/>
<path d="M11.7144 16V20.2857" stroke="#1D2B5F" stroke-width="1.5" stroke-linecap="round" stroke-linejoin="round"/>
<path d="M16 12.7856V20.2856" stroke="#1D2B5F" stroke-width="1.5" stroke-linecap="round" stroke-linejoin="round"/>
<path d="M20.2856 9.57153V20.2858" stroke="#1D2B5F" stroke-width="1.5" stroke-linecap="round" stroke-linejoin="round"/>
</svg>
