<svg width="26" height="26" viewBox="0 0 26 26" fill="none" xmlns="http://www.w3.org/2000/svg">
<path d="M16.2407 24.0693L16.2535 24.0767C17.3863 24.7979 18.7312 25.1112 20.0661 24.9648C21.401 24.8184 22.646 24.2211 23.5956 23.2715L24.4211 22.446C24.7898 22.0768 24.9969 21.5764 24.9969 21.0547C24.9969 20.5329 24.7898 20.0325 24.4211 19.6634L20.9431 16.1875C20.5739 15.8188 20.0735 15.6117 19.5518 15.6117C19.03 15.6117 18.5296 15.8188 18.1604 16.1875C17.9779 16.3703 17.7611 16.5153 17.5224 16.6142C17.2838 16.7131 17.028 16.7641 16.7697 16.7641C16.5113 16.7641 16.2555 16.7131 16.0169 16.6142C15.7782 16.5153 15.5614 16.3703 15.3789 16.1875L9.81365 10.6212C9.44495 10.252 9.23786 9.75161 9.23786 9.22987C9.23786 8.70812 9.44495 8.20771 9.81365 7.83856C9.99643 7.656 10.1414 7.4392 10.2404 7.20056C10.3393 6.96192 10.3902 6.70611 10.3902 6.44778C10.3902 6.18944 10.3393 5.93364 10.2404 5.695C10.1414 5.45636 9.99643 5.23956 9.81365 5.057L6.3367 1.57579C5.96754 1.20709 5.46713 1 4.94539 1C4.42365 1 3.92324 1.20709 3.55408 1.57579L2.72857 2.4013C1.77916 3.35093 1.18188 4.59587 1.03529 5.93067C0.888701 7.26547 1.20157 8.61037 1.92226 9.74341L1.93079 9.75621C5.74201 15.3981 10.5997 20.2568 16.2407 24.0693V24.0693Z" stroke="#1D2B5F" stroke-width="1.8" stroke-linecap="round" stroke-linejoin="round"/>
</svg>
