<svg width="46" height="46" viewBox="0 0 46 46" fill="none" xmlns="http://www.w3.org/2000/svg">
<path d="M15.6934 22.917C15.6934 18.763 19.0599 15.3947 23.2139 15.3947C27.3678 15.3947 30.7361 18.763 30.7361 22.917C30.7361 27.0709 27.3678 30.4392 23.2139 30.4392C19.0599 30.4392 15.6934 27.0709 15.6934 22.917V22.917ZM11.627 22.917C11.627 29.3164 16.8144 34.5038 23.2139 34.5038C29.6133 34.5038 34.8007 29.3164 34.8007 22.917C34.8007 16.5176 29.6133 11.3302 23.2139 11.3302C16.8144 11.3302 11.6272 16.5172 11.6272 22.917H11.627ZM32.5518 10.8707C32.5515 11.4063 32.7101 11.9299 33.0075 12.3753C33.3049 12.8207 33.7276 13.1679 34.2223 13.3731C34.717 13.5782 35.2615 13.6321 35.7868 13.5278C36.3121 13.4235 36.7946 13.1658 37.1735 12.7873C37.5523 12.4087 37.8104 11.9264 37.9151 11.4011C38.0198 10.8759 37.9664 10.3315 37.7616 9.83659C37.5569 9.34173 37.21 8.91869 36.7648 8.62098C36.3196 8.32326 35.7962 8.16424 35.2606 8.16403H35.2596C34.5417 8.16436 33.8533 8.44961 33.3456 8.95711C32.8379 9.46461 32.5524 10.1529 32.5518 10.8707V10.8707ZM14.0976 41.2845C11.8976 41.1843 10.7019 40.8178 9.90723 40.5082C8.85371 40.0981 8.10203 39.6096 7.31172 38.8204C6.5214 38.0311 6.0322 37.2802 5.62386 36.2267C5.31409 35.4324 4.94763 34.2363 4.84763 32.0363C4.73823 29.6578 4.71639 28.9433 4.71639 22.9173C4.71639 16.8914 4.74004 16.1789 4.84763 13.7984C4.94782 11.5984 5.31698 10.4046 5.62386 9.608C6.034 8.55449 6.52249 7.80281 7.31172 7.01249C8.10095 6.22218 8.85191 5.73297 9.90723 5.32464C10.7015 5.01487 11.8976 4.64841 14.0976 4.5484C16.4761 4.43901 17.1906 4.41717 23.2139 4.41717C29.2371 4.41717 29.9523 4.44045 32.3328 4.54877C34.5328 4.64895 35.7266 5.01812 36.5232 5.325C37.5767 5.73333 38.3284 6.22363 39.1187 7.01286C39.909 7.80209 40.3964 8.55485 40.8066 9.60836C41.1163 10.4026 41.4828 11.5988 41.5828 13.7988C41.6922 16.1793 41.714 16.8918 41.714 22.9177C41.714 28.9436 41.6922 29.6561 41.5828 32.0366C41.4826 34.2366 41.1143 35.4324 40.8066 36.227C40.3964 37.2805 39.9079 38.0322 39.1187 38.8207C38.3295 39.6092 37.5767 40.0985 36.5232 40.5086C35.7289 40.8184 34.5328 41.1848 32.3328 41.2848C29.9543 41.3942 29.2398 41.4161 23.2139 41.4161C17.1879 41.4161 16.4754 41.3942 14.0976 41.2848V41.2845ZM13.9108 0.488704C11.5086 0.598099 9.86715 0.978995 8.43365 1.5368C6.94996 2.11284 5.69228 2.88564 4.4364 4.13953C3.18053 5.39342 2.40971 6.65128 1.83367 8.13677C1.27587 9.57118 0.894974 11.2117 0.785579 13.6139C0.674379 16.0199 0.648926 16.7891 0.648926 22.917C0.648926 29.0449 0.674379 29.8141 0.785579 32.22C0.894974 34.6224 1.27587 36.2628 1.83367 37.6972C2.40971 39.1809 3.18071 40.4411 4.4364 41.6944C5.6921 42.9478 6.94815 43.7195 8.43365 44.2972C9.86986 44.855 11.5086 45.2359 13.9108 45.3452C16.318 45.4546 17.0859 45.4819 23.2139 45.4819C29.3418 45.4819 30.111 45.4564 32.5169 45.3452C34.9193 45.2359 36.5597 44.855 37.9941 44.2972C39.4778 43.7195 40.7354 42.9483 41.9913 41.6944C43.2472 40.4405 44.0164 39.1809 44.594 37.6972C45.1518 36.2628 45.5345 34.6222 45.6421 32.22C45.7515 29.8123 45.777 29.0449 45.777 22.917C45.777 16.7891 45.7515 16.0199 45.6421 13.6139C45.5327 11.2116 45.1518 9.57027 44.594 8.13677C44.0164 6.65308 43.2452 5.3954 41.9913 4.13953C40.7374 2.88366 39.4777 2.11284 37.9959 1.5368C36.5597 0.978995 34.9191 0.596294 32.5187 0.488704C30.1124 0.378768 29.3436 0.352051 23.2166 0.352051C17.0896 0.352051 16.3189 0.377504 13.9117 0.488704" fill="white"/>
</svg>
