<svg width="52" height="30" viewBox="0 0 52 30" fill="none" xmlns="http://www.w3.org/2000/svg">
<path d="M50.7696 16.6252V1.99426H36.1387" stroke="#1D2B5F" stroke-width="2.2" stroke-linecap="round" stroke-linejoin="round"/>
<path d="M50.7698 1.99475L33.5616 19.2029C33.2597 19.505 32.9012 19.7447 32.5066 19.9082C32.112 20.0718 31.689 20.1559 31.2619 20.1559C30.8347 20.1559 30.4118 20.0718 30.0172 19.9082C29.6226 19.7447 29.264 19.505 28.9621 19.2029L22.182 12.4228C21.8801 12.1207 21.5216 11.881 21.127 11.7175C20.7324 11.554 20.3094 11.4698 19.8823 11.4698C19.4551 11.4698 19.0321 11.554 18.6375 11.7175C18.2429 11.881 17.8844 12.1207 17.5825 12.4228L2 28.0053" stroke="#1D2B5F" stroke-width="2.2" stroke-linecap="round" stroke-linejoin="round"/>
</svg>
