<svg width="37" height="37" viewBox="0 0 37 37" fill="none" xmlns="http://www.w3.org/2000/svg">
<path fill-rule="evenodd" clip-rule="evenodd" d="M13.7627 0.874237C11.7767 0.875705 10.1693 2.48745 10.1708 4.47351C10.1693 6.45957 11.7781 8.07132 13.7642 8.07278H17.3576V4.47498C17.3591 2.48892 15.7502 0.877173 13.7627 0.874237C13.7642 0.874237 13.7642 0.874237 13.7627 0.874237V0.874237ZM13.7627 10.4743H4.18325C2.19719 10.4757 0.58838 12.0875 0.589848 14.0735C0.586912 16.0596 2.19572 17.6713 4.18178 17.6743H13.7627C15.7488 17.6728 17.3576 16.0611 17.3561 14.075C17.3576 12.0875 15.7488 10.4757 13.7627 10.4743V10.4743Z" fill="white"/>
<path fill-rule="evenodd" clip-rule="evenodd" d="M36.5207 14.0733C36.5221 12.0873 34.9133 10.4755 32.9273 10.474C30.9412 10.4755 29.3324 12.0873 29.3339 14.0733V17.6741H32.9273C34.9133 17.6726 36.5221 16.0608 36.5207 14.0733ZM26.9397 14.0733V4.4733C26.9412 2.48871 25.3339 0.876959 23.3478 0.874023C21.3617 0.875491 19.7529 2.48724 19.7544 4.4733V14.0733C19.7515 16.0594 21.3603 17.6711 23.3463 17.6741C25.3324 17.6726 26.9412 16.0608 26.9397 14.0733Z" fill="white"/>
<path fill-rule="evenodd" clip-rule="evenodd" d="M23.34 36.8739C25.326 36.8724 26.9349 35.2607 26.9334 33.2746C26.9349 31.2886 25.326 29.6768 23.34 29.6753H19.7466V33.2746C19.7451 35.2592 21.3539 36.871 23.34 36.8739ZM23.34 27.2724H32.9209C34.907 27.2709 36.5158 25.6592 36.5143 23.6731C36.5173 21.6871 34.9084 20.0753 32.9224 20.0724H23.3415C21.3554 20.0739 19.7466 21.6856 19.7481 23.6717C19.7466 25.6592 21.3539 27.2709 23.34 27.2724V27.2724Z" fill="white"/>
<path fill-rule="evenodd" clip-rule="evenodd" d="M0.589356 23.6727C0.587889 25.6587 2.1967 27.2705 4.18276 27.2719C6.16882 27.2705 7.77763 25.6587 7.77616 23.6727V20.0734H4.18276C2.1967 20.0749 0.587889 21.6866 0.589356 23.6727ZM10.1703 23.6727V33.2727C10.1674 35.2587 11.7762 36.8705 13.7622 36.8734C15.7483 36.872 17.3571 35.2602 17.3556 33.2742V23.6756C17.3586 21.6895 15.7498 20.0778 13.7637 20.0749C11.7762 20.0749 10.1688 21.6866 10.1703 23.6727C10.1703 23.6741 10.1703 23.6727 10.1703 23.6727Z" fill="white"/>
</svg>
