<svg width="35" height="33" viewBox="0 0 35 33" fill="none" xmlns="http://www.w3.org/2000/svg">
<path d="M0.812012 4.39393C0.812012 3.31647 1.18913 2.42758 1.94332 1.72726C2.69752 1.02692 3.67802 0.676758 4.88474 0.676758C6.06994 0.676758 7.02884 1.02152 7.76151 1.7111C8.51571 2.42221 8.89282 3.34879 8.89282 4.4909C8.89282 5.52524 8.5265 6.38717 7.79383 7.07676C7.03963 7.78787 6.04838 8.14342 4.82009 8.14342H4.78777C3.60257 8.14342 2.64367 7.78787 1.911 7.07676C1.17833 6.36565 0.812012 5.47136 0.812012 4.39393ZM1.23221 32.6768V11.0848H8.40797V32.6768H1.23221ZM12.3837 32.6768H19.5595V20.6202C19.5595 19.866 19.6457 19.2841 19.8181 18.8747C20.1197 18.1421 20.5777 17.5225 21.1918 17.0162C21.806 16.5097 22.5763 16.2566 23.5029 16.2566C25.9164 16.2566 27.1231 17.8835 27.1231 21.1374V32.6768H34.2989V20.297C34.2989 17.1077 33.5447 14.6889 32.0363 13.0404C30.5278 11.3919 28.5346 10.5677 26.0565 10.5677C23.2767 10.5677 21.111 11.7636 19.5595 14.1555V14.2202H19.5272L19.5595 14.1555V11.0848H12.3837C12.4268 11.7744 12.4484 13.9185 12.4484 17.5172C12.4484 21.1158 12.4268 26.169 12.3837 32.6768Z" fill="white"/>
</svg>
