<svg width="50" height="41" viewBox="0 0 50 41" fill="none" xmlns="http://www.w3.org/2000/svg">
<path d="M33.4577 0.952227V0.943359H35.7565L36.5964 1.11184C37.1564 1.22122 37.6648 1.36456 38.1216 1.5419C38.5784 1.71925 39.0205 1.92617 39.4478 2.16261C39.8752 2.39906 40.2627 2.63998 40.6105 2.8853C40.9553 3.12769 41.2648 3.38484 41.5389 3.65675C41.8099 3.93164 42.2329 4.00258 42.8076 3.86957C43.3823 3.73656 44.0012 3.55181 44.6643 3.31536C45.3274 3.07892 45.9832 2.8129 46.6315 2.5173C47.2799 2.22171 47.6749 2.03404 47.8163 1.95423C47.9548 1.8715 48.0285 1.82716 48.0374 1.82122L48.0462 1.80792L48.0904 1.78575L48.1346 1.76358L48.1788 1.74142L48.223 1.71925L48.2318 1.70595L48.2451 1.69708L48.2584 1.68821L48.2672 1.67491L48.3114 1.66161L48.3556 1.65274L48.3468 1.71925L48.3335 1.78575L48.3114 1.85226L48.2893 1.91876L48.2672 1.9631L48.2451 2.00744L48.223 2.07394C48.2083 2.11828 48.1935 2.17738 48.1788 2.25129C48.1641 2.32519 48.024 2.62074 47.7588 3.13802C47.4936 3.65529 47.162 4.17992 46.7641 4.71196C46.3663 5.244 46.0097 5.64595 45.6944 5.91791C45.3761 6.1928 45.1653 6.38491 45.0621 6.49429C44.959 6.60659 44.8338 6.71003 44.6864 6.80464L44.4653 6.95095L44.4211 6.97312L44.3769 6.99529L44.3681 7.00859L44.3548 7.01746L44.3416 7.02633L44.3327 7.03963L44.2885 7.0618L44.2443 7.08396L44.2355 7.09726L44.2222 7.10613L44.2089 7.115L44.2001 7.1283L44.1913 7.1416L44.178 7.15047L44.1647 7.15934L44.1559 7.17264H44.3769L45.6147 6.90662C46.44 6.72927 47.2283 6.51499 47.9798 6.26374L49.1734 5.86471L49.3061 5.82037L49.3724 5.79821L49.4166 5.77604L49.4608 5.75387L49.505 5.7317L49.5492 5.70953L49.6376 5.69623L49.726 5.68736V5.77604L49.7039 5.7849L49.6818 5.79821L49.673 5.81151L49.6597 5.82037L49.6465 5.82924L49.6376 5.84254L49.6288 5.85584L49.6155 5.86471L49.6023 5.87358L49.5934 5.88688L49.5846 5.90018L49.5713 5.90905L49.5492 5.95338L49.5271 5.99772L49.5138 6.00659C49.508 6.01545 49.3208 6.26666 48.9524 6.76031C48.584 7.25688 48.3851 7.50809 48.3556 7.51403C48.3262 7.52289 48.2849 7.56723 48.2318 7.64704C48.1817 7.72977 47.8693 8.05937 47.2946 8.63574C46.7199 9.21212 46.1571 9.72491 45.6059 10.1742C45.0519 10.6264 44.7719 11.1821 44.766 11.8413C44.7572 12.4974 44.7233 13.2394 44.6643 14.067C44.6054 14.8946 44.4948 15.7887 44.3327 16.7493C44.1707 17.71 43.9201 18.7962 43.5812 20.0081C43.2423 21.2199 42.8297 22.4022 42.3434 23.555C41.8571 24.7077 41.3487 25.7422 40.8182 26.6585C40.2877 27.5748 39.8015 28.3507 39.3594 28.9862C38.9173 29.6217 38.4679 30.2202 38.0111 30.7818C37.5543 31.3434 36.9766 31.976 36.2782 32.6794C35.5767 33.3799 35.1936 33.7642 35.1288 33.8322C35.061 33.8972 34.7722 34.1396 34.2623 34.5593C33.7554 34.9819 33.2101 35.4046 32.6266 35.8273C32.046 36.247 31.5126 36.5973 31.0263 36.8781C30.54 37.1589 29.9535 37.4796 29.2668 37.8402C28.5831 38.2037 27.8433 38.5407 27.0476 38.8511C26.2519 39.1614 25.4119 39.4496 24.5278 39.7156C23.6436 39.9816 22.789 40.1886 21.9637 40.3363C21.1386 40.4841 20.2028 40.6098 19.1566 40.7132L17.5872 40.8684V40.8905H14.7137V40.8684L14.338 40.8462C14.0875 40.8314 13.8812 40.8166 13.7191 40.8019C13.557 40.7871 12.9454 40.7058 11.8844 40.558C10.8235 40.4102 9.9909 40.2624 9.38672 40.1147C8.78258 39.9669 7.88366 39.6861 6.69006 39.2723C5.49646 38.8585 4.47527 38.4402 3.62649 38.0175C2.78066 37.5978 2.25017 37.3318 2.03502 37.2195C1.82282 37.1101 1.5841 36.9742 1.31886 36.8116L0.920989 36.5677L0.912191 36.5544L0.898885 36.5456L0.885623 36.5367L0.876781 36.5234L0.832574 36.5012L0.788366 36.4791L0.779569 36.4658L0.766262 36.4569L0.753 36.448L0.744159 36.4347L0.735361 36.4214L0.722055 36.4126H0.699951V36.3239L0.744159 36.3327L0.788366 36.346L0.9873 36.3682C1.11992 36.383 1.48096 36.4052 2.07038 36.4347C2.65985 36.4643 3.28609 36.4643 3.9492 36.4347C4.61231 36.4052 5.29019 36.3386 5.98274 36.2352C6.67534 36.1318 7.49318 35.9544 8.43626 35.7032C9.37938 35.4519 10.2458 35.1534 11.0357 34.8076C11.8226 34.4588 12.3825 34.1987 12.7156 34.0273C13.0456 33.8588 13.5496 33.5454 14.2274 33.0873L15.2442 32.4001L15.2531 32.3868L15.2663 32.3779L15.2796 32.3691L15.2884 32.3558L15.2973 32.3425L15.3105 32.3336L15.3238 32.3247L15.3326 32.3114L15.3768 32.2981L15.421 32.2893L15.4299 32.2449L15.4431 32.2006L15.4564 32.1917L15.4652 32.1784L15.1116 32.1563C14.8758 32.1415 14.6474 32.1267 14.4264 32.1119C14.2053 32.0972 13.8591 32.0306 13.3875 31.9124C12.916 31.7942 12.4076 31.6168 11.8623 31.3804C11.3171 31.1439 10.7866 30.8631 10.2709 30.538C9.75514 30.2128 9.3823 29.9424 9.15242 29.7266C8.9255 29.5138 8.63077 29.2123 8.26827 28.8221C7.90873 28.4291 7.59632 28.0256 7.33107 27.6118C7.06583 27.198 6.81239 26.7206 6.57075 26.1797L6.20378 25.3728L6.18168 25.3063L6.15957 25.2398L6.14631 25.1954L6.13747 25.1511L6.20378 25.16L6.27009 25.1733L6.75637 25.2398C7.08059 25.2841 7.58898 25.2989 8.28153 25.2841C8.97413 25.2693 9.45303 25.2398 9.71827 25.1954C9.98352 25.1511 10.1456 25.1215 10.2046 25.1067L10.293 25.0846L10.4035 25.0624L10.514 25.0402L10.5229 25.0269L10.5361 25.0181L10.5494 25.0092L10.5582 24.9959L10.4698 24.9737L10.3814 24.9516L10.293 24.9294L10.2046 24.9072L10.1161 24.8851C10.0572 24.8703 9.95408 24.8407 9.80669 24.7964C9.65935 24.7521 9.26148 24.5895 8.61309 24.3087C7.96474 24.0279 7.44897 23.7545 7.06583 23.4885C6.68173 23.2217 6.3155 22.9299 5.96948 22.615C5.62466 22.2958 5.24598 21.8849 4.83335 21.3825C4.42076 20.88 4.05238 20.2962 3.72816 19.6312C3.40399 18.9661 3.16085 18.3307 2.99874 17.7247C2.83728 17.1223 2.73076 16.5065 2.68049 15.8848L2.60087 14.9537L2.64508 14.9626L2.68929 14.9759L2.73349 14.998L2.7777 15.0202L2.82191 15.0424L2.86612 15.0645L3.55133 15.3749C4.00817 15.5818 4.57549 15.7592 5.25332 15.9069C5.9312 16.0547 6.3364 16.136 6.46903 16.1508L6.66796 16.1729H7.06583L7.05703 16.1596L7.04372 16.1508L7.03046 16.1419L7.02162 16.1286L7.01282 16.1153L6.99952 16.1064L6.98625 16.0976L6.97741 16.0843L6.9332 16.0621L6.889 16.0399L6.8802 16.0266L6.86689 16.0178L6.85363 16.0089L6.84479 15.9956L6.80058 15.9734L6.75637 15.9513L6.74758 15.938C6.73874 15.932 6.61199 15.8375 6.36735 15.6542C6.12567 15.468 5.87223 15.2271 5.60698 14.9315C5.34174 14.6359 5.07649 14.3256 4.81125 14.0005C4.54551 13.6746 4.30883 13.326 4.10393 12.9585C3.89765 12.5891 3.67953 12.1191 3.44966 11.5486C3.22274 10.9811 3.05033 10.4092 2.93243 9.83283C2.81457 9.25645 2.74826 8.68748 2.73349 8.12587C2.71877 7.56426 2.73349 7.08396 2.7777 6.68494C2.82191 6.28591 2.91032 5.83514 3.04295 5.33267C3.17557 4.83021 3.36716 4.29817 3.61764 3.73656L3.99341 2.89417L4.01551 2.82766L4.03762 2.76116L4.05092 2.75229L4.05972 2.73899L4.06856 2.72569L4.08182 2.71682L4.09513 2.72569L4.10393 2.73899L4.11277 2.75229L4.12603 2.76116L4.13934 2.77002L4.14813 2.78332L4.15698 2.79662L4.17024 2.80549L4.19234 2.84983L4.21444 2.89417L4.22775 2.90303L4.23655 2.91633L4.83335 3.58138C5.23122 4.02475 5.70278 4.51985 6.24799 5.06665C6.79324 5.61346 7.09531 5.89721 7.15424 5.91791C7.21321 5.94155 7.28686 6.00951 7.37528 6.12186C7.46369 6.23124 7.75843 6.49283 8.25943 6.90662C8.76048 7.32041 9.41621 7.80075 10.2267 8.34755C11.0372 8.89436 11.936 9.4338 12.9233 9.96584C13.9106 10.4979 14.9716 10.9782 16.1063 11.4068C17.2409 11.8354 18.0367 12.1162 18.4935 12.2492C18.9503 12.3822 19.7313 12.5521 20.8365 12.759C21.9416 12.966 22.7742 13.099 23.3342 13.1581C23.8942 13.2172 24.2773 13.2512 24.4836 13.26L24.793 13.2689L24.7842 13.2024L24.7709 13.1359L24.6825 12.5817C24.6236 12.2122 24.5941 11.695 24.5941 11.0299C24.5941 10.3649 24.6457 9.75156 24.7488 9.18995C24.852 8.62834 25.0067 8.05937 25.213 7.48299C25.4193 6.90662 25.6212 6.44401 25.8186 6.09526C26.0191 5.74944 26.2814 5.35484 26.6055 4.91148C26.9297 4.46811 27.3497 4.00998 27.8654 3.53704C28.3812 3.06411 28.9706 2.64291 29.6337 2.27345C30.2969 1.904 30.9084 1.62317 31.4683 1.43106C32.0283 1.23895 32.4999 1.1133 32.883 1.0542C33.2661 0.9951 33.4577 0.961094 33.4577 0.952227V0.952227Z" fill="white"/>
</svg>
