<svg width="1222" height="689" viewBox="0 0 1222 689" fill="none" xmlns="http://www.w3.org/2000/svg">
<path d="M0 24C0 10.7451 10.7452 0 24 0H1197.61C1210.86 0 1221.61 10.7452 1221.61 24V663.78C1221.61 677.035 1210.86 687.78 1197.61 687.78H24C10.7452 687.78 0 677.035 0 663.78V24Z" fill="#1D2B5F"/>
<line x1="161.232" y1="75.2597" x2="161.232" y2="612.521" stroke="#384883" stroke-width="2.56628" stroke-linecap="round" stroke-dasharray="15.4 15.4"/>
<line x1="341.175" y1="75.2597" x2="341.175" y2="612.521" stroke="#384883" stroke-width="2.56628" stroke-linecap="round" stroke-dasharray="15.4 15.4"/>
<line x1="521.117" y1="75.2597" x2="521.117" y2="612.521" stroke="#384883" stroke-width="2.56628" stroke-linecap="round" stroke-dasharray="15.4 15.4"/>
<line x1="701.06" y1="75.2597" x2="701.06" y2="612.521" stroke="#384883" stroke-width="2.56628" stroke-linecap="round" stroke-dasharray="15.4 15.4"/>
<line x1="881.002" y1="75.2597" x2="881.002" y2="612.521" stroke="#384883" stroke-width="2.56628" stroke-linecap="round" stroke-dasharray="15.4 15.4"/>
<line x1="1060.94" y1="75.2597" x2="1060.94" y2="612.521" stroke="#384883" stroke-width="2.56628" stroke-linecap="round" stroke-dasharray="15.4 15.4"/>
<path d="M97.9688 537.828C153.51 470.516 240.781 353.887 390.348 353.887C570.596 353.887 614.611 445.857 817.914 445.857C1021.22 445.857 1047.42 122.961 1139.64 113.963" stroke="white" stroke-width="5.13257" stroke-linecap="round"/>
<circle cx="341.891" cy="357.886" r="25.9917" fill="#1D2B5F" stroke="white" stroke-width="5.13257" stroke-linecap="round"/>
<circle cx="699.776" cy="437.86" r="25.9917" fill="#1D2B5F" stroke="white" stroke-width="5.13257" stroke-linecap="round"/>
<circle cx="1061.66" cy="197.937" r="25.9917" fill="#1D2B5F" stroke="white" stroke-width="5.13257" stroke-linecap="round"/>
<line x1="91.8959" y1="611.879" x2="1129.71" y2="611.879" stroke="white" stroke-width="3.84943" stroke-linecap="round"/>
<path fill-rule="evenodd" clip-rule="evenodd" d="M574.085 213.932C568.416 213.932 563.82 218.527 563.82 224.197V321.629C563.82 327.298 568.416 331.894 574.085 331.894H682.603L698.387 356.09C699.4 357.642 701.673 357.642 702.686 356.09L718.47 331.894H825.468C831.137 331.894 835.733 327.298 835.733 321.629V224.197C835.733 218.528 831.137 213.932 825.468 213.932H574.085Z" fill="#1D2B5F"/>
<path d="M682.603 331.894L684.752 330.492L683.993 329.328H682.603V331.894ZM698.387 356.09L696.238 357.492L696.238 357.492L698.387 356.09ZM702.686 356.09L704.835 357.492L704.835 357.492L702.686 356.09ZM718.47 331.894V329.328H717.08L716.32 330.492L718.47 331.894ZM566.386 224.197C566.386 219.945 569.833 216.498 574.085 216.498V211.365C566.998 211.365 561.254 217.11 561.254 224.197H566.386ZM566.386 321.629V224.197H561.254V321.629H566.386ZM574.085 329.328C569.833 329.328 566.386 325.881 566.386 321.629H561.254C561.254 328.715 566.998 334.46 574.085 334.46V329.328ZM682.603 329.328H574.085V334.46H682.603V329.328ZM680.454 333.296L696.238 357.492L700.536 354.688L684.752 330.492L680.454 333.296ZM696.238 357.492C698.263 360.597 702.81 360.597 704.835 357.492L700.536 354.688H700.536L696.238 357.492ZM704.835 357.492L720.619 333.296L716.32 330.492L700.536 354.688L704.835 357.492ZM825.468 329.328H718.47V334.46H825.468V329.328ZM833.167 321.629C833.167 325.881 829.72 329.328 825.468 329.328V334.46C832.554 334.46 838.299 328.715 838.299 321.629H833.167ZM833.167 224.197V321.629H838.299V224.197H833.167ZM825.468 216.498C829.72 216.498 833.167 219.945 833.167 224.197H838.299C838.299 217.11 832.554 211.365 825.468 211.365V216.498ZM574.085 216.498H825.468V211.365H574.085V216.498Z" fill="white"/>
<circle cx="603.808" cy="267.915" r="17.9943" fill="white"/>
<rect x="633.798" y="255.918" width="83.9732" height="7.99745" rx="3.99872" fill="white"/>
<rect x="633.798" y="271.913" width="135.957" height="7.99745" rx="3.99872" fill="white"/>
<path d="M802.632 259.842C803.126 258.987 804.361 258.987 804.855 259.842L814.753 276.986C815.247 277.841 814.629 278.911 813.642 278.911H793.846C792.858 278.911 792.24 277.841 792.734 276.986L802.632 259.842Z" fill="white"/>
</svg>
