<svg width="186" height="31" viewBox="0 0 186 31" fill="none" xmlns="http://www.w3.org/2000/svg">
<path d="M63.9264 16.2951C62.5796 18.4799 60.6642 19.7369 58.1801 19.7369C54.5887 19.7369 51.955 16.8338 51.955 13.0927C51.955 9.35165 54.469 6.4785 58.24 6.4785C60.6343 6.4785 62.7891 7.82529 63.8666 9.86044L67.3383 7.107C65.5725 3.96449 62.3701 2.07898 58.2998 2.07898C51.7754 2.07898 47.1963 6.92743 47.1963 13.0927C47.1963 19.2581 51.8652 24.1364 58.24 24.1364C62.2504 24.1364 65.6024 22.0115 67.4281 18.9887L63.9264 16.2951Z" fill="#1D2B5F"/>
<path d="M76.9351 8.06472C72.1465 8.06472 68.7047 11.5365 68.7047 16.0856C68.7047 20.6048 72.1465 24.1364 76.9351 24.1364C81.7237 24.1364 85.1655 20.6048 85.1655 16.0856C85.1655 11.5365 81.7237 8.06472 76.9351 8.06472ZM76.9351 12.1051C79.0002 12.1051 80.5565 13.6913 80.5565 16.0856C80.5565 18.4799 79.0002 20.0961 76.9351 20.0961C74.8701 20.0961 73.3138 18.4799 73.3138 16.0856C73.3138 13.6913 74.8701 12.1051 76.9351 12.1051Z" fill="#1D2B5F"/>
<path d="M88.139 8.42387V23.7773H92.6882V15.7863C92.6882 13.7811 93.7357 12.0752 95.6511 12.0752C97.3271 12.0752 98.4045 13.1227 98.4045 15.1279V23.7773H102.954V15.7863C102.954 13.7811 104.001 12.0752 105.917 12.0752C107.593 12.0752 108.64 13.1227 108.64 15.1279V23.7773H113.189V14.4395C113.189 10.459 110.945 8.06472 107.263 8.06472C104.66 8.06472 103.193 9.20201 102.086 10.7583C101.038 9.05237 99.3623 8.06472 96.9979 8.06472C94.9927 8.06472 93.4962 8.84287 92.5086 10.3992V8.42387H88.139Z" fill="#1D2B5F"/>
<path d="M125.125 12.0752C127.07 12.0752 128.686 13.6614 128.686 16.1455C128.686 18.5398 127.07 20.126 125.125 20.126C123.09 20.126 121.503 18.5697 121.503 16.1455C121.503 13.6315 123.09 12.0752 125.125 12.0752ZM121.294 8.42387H117.074V29.763H121.623V22.1013C122.581 23.5379 124.407 24.1364 126.053 24.1364C130.243 24.1364 133.265 20.6647 133.265 16.0856C133.265 11.3569 130.003 8.06472 126.083 8.06472C124.586 8.06472 122.491 8.69322 121.294 10.5488V8.42387Z" fill="#1D2B5F"/>
<path d="M144.208 14.23L140.018 15.0381C136.786 15.7265 135.02 17.2828 135.02 19.5573C135.02 22.221 137.115 24.1364 140.108 24.1364C142.143 24.1364 143.639 23.2386 144.358 21.8918V23.7773H148.578V14.1103C148.578 10.3692 146.034 8.06472 141.754 8.06472C138.881 8.06472 136.576 9.26187 135.17 10.9678L137.534 13.841C138.462 12.7935 139.779 11.9854 141.485 11.9854C143.041 11.9854 144.208 12.584 144.208 14.1103V14.23ZM141.125 20.7545C140.048 20.7545 139.36 20.1559 139.36 19.288C139.36 18.45 139.958 17.9113 141.185 17.7018L144.238 17.1032V17.5521C144.238 19.3778 143.011 20.7545 141.125 20.7545Z" fill="#1D2B5F"/>
<path d="M152.41 8.42387V23.7773H156.959V15.7863C156.959 13.7811 158.006 12.0752 159.982 12.0752C161.658 12.0752 162.735 13.1227 162.735 15.1279V23.7773H167.284V14.4395C167.284 10.459 165.01 8.06472 161.328 8.06472C159.263 8.06472 157.767 8.84287 156.779 10.3992V8.42387H152.41Z" fill="#1D2B5F"/>
<path d="M174.712 23.2086L174.533 23.7174C173.874 25.9022 172.767 26.2913 171.57 26.2913C171.061 26.2913 170.283 26.2314 169.475 25.7825V29.5535C170.163 29.8827 171.151 30.1222 172.228 30.1222C175.131 30.1222 176.987 28.7455 178.513 25.0343L185.217 8.42387H180.578L176.987 18.4799L173.425 8.42387H168.667L174.712 23.2086Z" fill="#1D2B5F"/>
<path d="M20.206 9.15527e-05H15.2301C14.7864 9.15527e-05 14.4268 0.359755 14.4268 0.803422V26.4327C14.4268 26.8764 14.7864 27.2361 15.2301 27.2361H20.206C20.6497 27.2361 21.0094 26.8764 21.0094 26.4327V0.803422C21.0094 0.359755 20.6497 9.15527e-05 20.206 9.15527e-05Z" fill="#1D2B5F"/>
<path d="M29.8415 27.2358C32.9318 27.2358 35.4369 24.7306 35.4369 21.6403C35.4369 18.5501 32.9318 16.0449 29.8415 16.0449C26.7513 16.0449 24.2461 18.5501 24.2461 21.6403C24.2461 24.7306 26.7513 27.2358 29.8415 27.2358Z" fill="#49578D"/>
<path d="M29.8415 11.1909C32.9318 11.1909 35.4369 8.68579 35.4369 5.59552C35.4369 2.50525 32.9318 9.15527e-05 29.8415 9.15527e-05C26.7513 9.15527e-05 24.2461 2.50525 24.2461 5.59552C24.2461 8.68579 26.7513 11.1909 29.8415 11.1909Z" fill="#49578D"/>
<path d="M5.59543 27.2358C8.6857 27.2358 11.1909 24.7306 11.1909 21.6403C11.1909 18.5501 8.6857 16.0449 5.59543 16.0449C2.50516 16.0449 0 18.5501 0 21.6403C0 24.7306 2.50516 27.2358 5.59543 27.2358Z" fill="#49578D"/>
</svg>
