<svg width="185" height="28" viewBox="0 0 185 28" fill="none" xmlns="http://www.w3.org/2000/svg">
<path d="M64.8202 21.3542C63.34 21.3542 62.0352 21.0329 60.9056 20.3902C59.776 19.7475 58.8801 18.8516 58.2179 17.7025C57.5753 16.5535 57.2539 15.2389 57.2539 13.7587C57.2539 12.2786 57.5753 10.964 58.2179 9.81492C58.8801 8.66586 59.776 7.76998 60.9056 7.12728C62.0352 6.48459 63.34 6.16324 64.8202 6.16324C66.6704 6.16324 68.2284 6.65013 69.4943 7.62391C70.7603 8.57822 71.5685 9.90256 71.919 11.5969H67.9752C67.7805 10.8958 67.391 10.3505 66.8067 9.96098C66.2419 9.552 65.57 9.3475 64.791 9.3475C63.7588 9.3475 62.8824 9.73701 62.1618 10.516C61.4412 11.2951 61.0809 12.376 61.0809 13.7587C61.0809 15.1415 61.4412 16.2224 62.1618 17.0014C62.8824 17.7804 63.7588 18.17 64.791 18.17C65.57 18.17 66.2419 17.9752 66.8067 17.5857C67.391 17.1962 67.7805 16.6411 67.9752 15.9205H71.919C71.5685 17.5565 70.7603 18.8711 69.4943 19.8643C68.2284 20.8576 66.6704 21.3542 64.8202 21.3542Z" fill="#1D2B5F"/>
<path d="M81.6065 21.3542C80.2043 21.3542 78.9383 21.0329 77.8088 20.3902C76.6986 19.7475 75.8125 18.8613 75.1503 17.7318C74.5076 16.5827 74.1863 15.2584 74.1863 13.7587C74.1863 12.2591 74.5174 10.9445 75.1795 9.81492C75.8417 8.66586 76.7279 7.76998 77.838 7.12728C78.9676 6.48459 80.2335 6.16324 81.6357 6.16324C83.0185 6.16324 84.2649 6.48459 85.375 7.12728C86.5046 7.76998 87.3908 8.66586 88.0335 9.81492C88.6956 10.9445 89.0267 12.2591 89.0267 13.7587C89.0267 15.2584 88.6956 16.5827 88.0335 17.7318C87.3908 18.8613 86.5046 19.7475 85.375 20.3902C84.2454 21.0329 82.9893 21.3542 81.6065 21.3542ZM81.6065 18.1115C82.5803 18.1115 83.4275 17.7512 84.1481 17.0306C84.8687 16.2906 85.229 15.1999 85.229 13.7587C85.229 12.3175 84.8687 11.2366 84.1481 10.516C83.4275 9.77596 82.59 9.40593 81.6357 9.40593C80.6425 9.40593 79.7855 9.77596 79.0649 10.516C78.3638 11.2366 78.0132 12.3175 78.0132 13.7587C78.0132 15.1999 78.3638 16.2906 79.0649 17.0306C79.7855 17.7512 80.6327 18.1115 81.6065 18.1115Z" fill="#1D2B5F"/>
<path d="M91.7858 21.0037V6.5138H95.0869L95.4082 8.4711C95.8757 7.76998 96.4891 7.21492 97.2487 6.80593C98.0277 6.37747 98.9236 6.16324 99.9363 6.16324C102.176 6.16324 103.763 7.0299 104.698 8.76323C105.224 7.96473 105.925 7.33177 106.801 6.86436C107.697 6.39694 108.671 6.16324 109.723 6.16324C111.612 6.16324 113.063 6.72803 114.076 7.85762C115.088 8.9872 115.595 10.6426 115.595 12.8239V21.0037H111.855V13.1745C111.855 11.928 111.612 10.9737 111.125 10.3115C110.658 9.64937 109.927 9.31829 108.934 9.31829C107.921 9.31829 107.103 9.68832 106.48 10.4284C105.876 11.1685 105.575 12.2007 105.575 13.525V21.0037H101.835V13.1745C101.835 11.928 101.592 10.9737 101.105 10.3115C100.618 9.64937 99.8682 9.31829 98.8554 9.31829C97.8622 9.31829 97.0539 9.68832 96.4307 10.4284C95.827 11.1685 95.5251 12.2007 95.5251 13.525V21.0037H91.7858Z" fill="#1D2B5F"/>
<path d="M118.561 27.4306V6.5138H121.891L122.3 8.58795C122.767 7.94526 123.381 7.38046 124.14 6.89357C124.919 6.40668 125.922 6.16324 127.149 6.16324C128.513 6.16324 129.73 6.49432 130.801 7.15649C131.872 7.81867 132.719 8.72428 133.343 9.87334C133.966 11.0224 134.277 12.3273 134.277 13.7879C134.277 15.2486 133.966 16.5535 133.343 17.7025C132.719 18.8321 131.872 19.728 130.801 20.3902C129.73 21.0329 128.513 21.3542 127.149 21.3542C126.059 21.3542 125.104 21.1497 124.286 20.7407C123.468 20.3318 122.806 19.7572 122.3 19.0171V27.4306H118.561ZM126.361 18.0823C127.549 18.0823 128.532 17.6831 129.311 16.8846C130.09 16.0861 130.48 15.0539 130.48 13.7879C130.48 12.522 130.09 11.4801 129.311 10.6621C128.532 9.84413 127.549 9.43514 126.361 9.43514C125.153 9.43514 124.16 9.84413 123.381 10.6621C122.621 11.4606 122.241 12.4928 122.241 13.7587C122.241 15.0246 122.621 16.0666 123.381 16.8846C124.16 17.6831 125.153 18.0823 126.361 18.0823Z" fill="#1D2B5F"/>
<path d="M142.029 21.3542C140.783 21.3542 139.76 21.1595 138.962 20.77C138.163 20.361 137.569 19.8254 137.18 19.1632C136.79 18.501 136.595 17.7707 136.595 16.9722C136.595 15.6284 137.121 14.5378 138.173 13.7003C139.225 12.8629 140.802 12.4441 142.905 12.4441H146.586V12.0936C146.586 11.1003 146.304 10.37 145.739 9.90256C145.174 9.43514 144.473 9.20143 143.636 9.20143C142.876 9.20143 142.214 9.38645 141.649 9.75649C141.084 10.1071 140.734 10.6329 140.598 11.334H136.946C137.043 10.2823 137.394 9.36698 137.998 8.58795C138.621 7.80893 139.419 7.21492 140.393 6.80593C141.367 6.37747 142.457 6.16324 143.665 6.16324C145.729 6.16324 147.356 6.67934 148.544 7.71155C149.732 8.74376 150.326 10.2044 150.326 12.0936V21.0037H147.141L146.791 18.6666C146.362 19.4456 145.759 20.0883 144.98 20.5947C144.22 21.101 143.236 21.3542 142.029 21.3542ZM142.876 18.4329C143.947 18.4329 144.775 18.0823 145.359 17.3812C145.963 16.6801 146.343 15.8134 146.499 14.7812H143.314C142.321 14.7812 141.61 14.9662 141.182 15.3363C140.753 15.6868 140.539 16.125 140.539 16.6509C140.539 17.2157 140.753 17.6539 141.182 17.9655C141.61 18.2771 142.175 18.4329 142.876 18.4329Z" fill="#1D2B5F"/>
<path d="M153.31 21.0037V6.5138H156.611L156.903 8.96773C157.351 8.1108 157.994 7.42915 158.831 6.92279C159.688 6.41642 160.691 6.16324 161.84 6.16324C163.632 6.16324 165.024 6.72803 166.018 7.85762C167.011 8.9872 167.507 10.6426 167.507 12.8239V21.0037H163.768V13.1745C163.768 11.928 163.515 10.9737 163.009 10.3115C162.502 9.64937 161.713 9.31829 160.642 9.31829C159.591 9.31829 158.724 9.68832 158.042 10.4284C157.38 11.1685 157.049 12.2007 157.049 13.525V21.0037H153.31Z" fill="#1D2B5F"/>
<path d="M171.825 27.4306L175.185 20.0396H174.308L168.67 6.5138H172.731L176.791 16.7093L181.027 6.5138H185L175.798 27.4306H171.825Z" fill="#1D2B5F"/>
<path d="M14.3324 25.2123C13.5218 26.0229 12.2072 26.0218 11.398 25.2098L1.46096 15.2387C0.653687 14.4286 0.654812 13.1179 1.46347 12.3092L11.4005 2.37222C12.2091 1.56357 13.5199 1.56244 14.3299 2.36971L24.3011 12.3067C25.1131 13.1159 25.1142 14.4306 24.3036 15.2412L14.3324 25.2123Z" fill="#49578D"/>
<path d="M27.2384 25.2099C26.4291 26.0219 25.1145 26.023 24.3039 25.2124L14.3328 15.2412C13.5221 14.4306 13.5233 13.116 14.3353 12.3068L24.3064 2.36977C25.1165 1.5625 26.4272 1.56363 27.2359 2.37228L37.1729 12.3093C37.9815 13.1179 37.9826 14.4287 37.1754 15.2387L27.2384 25.2099Z" fill="#1D2B5F"/>
<path d="M36.8043 25.2114C35.9944 26.0226 34.6799 26.0226 33.87 25.2114L23.9143 15.2401C23.1052 14.4297 23.1063 13.1169 23.9168 12.3079L33.8725 2.37071C34.6818 1.56289 35.9924 1.56288 36.8017 2.3707L46.7575 12.3079C47.568 13.1169 47.5691 14.4297 46.76 15.2401L36.8043 25.2114Z" fill="#49578D"/>
</svg>
