<svg width="203" height="33" viewBox="0 0 203 33" fill="none" xmlns="http://www.w3.org/2000/svg">
<path d="M25.4183 14.166C21.1197 14.166 17.6304 10.69 17.6304 6.41792C17.6304 5.8607 17.6968 5.33001 17.8029 4.79932H7.45445C3.44774 4.79932 0.197266 8.03652 0.197266 12.0167V25.3503C0.197266 29.3437 3.44774 32.5676 7.45445 32.5676H20.8544C24.8743 32.5676 28.1115 29.3304 28.1115 25.3503V13.6751C27.289 13.9802 26.3735 14.166 25.4183 14.166Z" fill="#1D2B5F"/>
<path d="M28.1242 25.3503V13.6751C27.2884 13.9802 26.373 14.166 25.431 14.166C21.1324 14.166 17.6431 10.69 17.6431 6.41792C17.6431 5.8607 17.7094 5.33001 17.8156 4.79932H7.46714C3.48697 4.79932 0.26303 7.98345 0.209961 11.9371C9.76237 15.8775 19.5801 20.6669 28.0712 26.2657C28.0977 25.9606 28.1242 25.6554 28.1242 25.3503Z" fill="#1D2B5F"/>
<path d="M26.0146 11.4895C29.1324 11.4895 31.6531 8.98196 31.6531 5.87742C31.6531 2.78616 29.1324 0.265381 26.0146 0.265381C22.8968 0.265381 20.376 2.77289 20.376 5.87742C20.376 8.96869 22.8968 11.4895 26.0146 11.4895Z" fill="#49578D"/>
<path d="M60.1764 18.6286C59.9545 19.5717 59.58 20.4872 59.053 21.3748C58.5259 22.2348 57.874 23.0115 57.0973 23.705C56.3206 24.3707 55.4329 24.9116 54.4343 25.3277C53.4357 25.7161 52.3677 25.9103 51.2304 25.9103C49.9266 25.9103 48.6922 25.6606 47.5271 25.1613C46.3898 24.6342 45.3773 23.9269 44.4896 23.0392C43.6297 22.1515 42.9362 21.1252 42.4091 19.9601C41.9098 18.7673 41.6602 17.4913 41.6602 16.132C41.6602 14.7728 41.9098 13.5106 42.4091 12.3455C42.9362 11.1527 43.6297 10.1125 44.4896 9.22482C45.3773 8.33715 46.3898 7.64366 47.5271 7.14434C48.6922 6.61729 49.9266 6.35376 51.2304 6.35376C52.3677 6.35376 53.4357 6.56181 54.4343 6.9779C55.4329 7.36626 56.3206 7.90719 57.0973 8.60068C57.874 9.26643 58.5259 10.0431 59.053 10.9308C59.58 11.7907 59.9545 12.6923 60.1764 13.6354H55.3913C55.1694 13.1361 54.8643 12.6923 54.4759 12.3039C54.143 11.9711 53.7131 11.6659 53.186 11.3885C52.659 11.0834 52.0071 10.9308 51.2304 10.9308C49.8711 10.9308 48.7338 11.4024 47.8184 12.3455C46.903 13.2887 46.4453 14.5509 46.4453 16.132C46.4453 17.7132 46.903 18.9753 47.8184 19.9185C48.7338 20.8616 49.8711 21.3332 51.2304 21.3332C52.0071 21.3332 52.659 21.1945 53.186 20.9171C53.7131 20.6397 54.143 20.3346 54.4759 20.0017C54.8643 19.6134 55.1694 19.1556 55.3913 18.6286H60.1764Z" fill="#1D2B5F"/>
<path d="M68.0822 16.132C68.0822 17.7132 68.54 18.9753 69.4554 19.9185C70.3708 20.8616 71.5081 21.3332 72.8674 21.3332C74.2266 21.3332 75.3639 20.8616 76.2793 19.9185C77.1948 18.9753 77.6525 17.7132 77.6525 16.132C77.6525 14.5509 77.1948 13.2887 76.2793 12.3455C75.3639 11.4024 74.2266 10.9308 72.8674 10.9308C71.5081 10.9308 70.3708 11.4024 69.4554 12.3455C68.54 13.2887 68.0822 14.5509 68.0822 16.132ZM82.4376 16.132C82.4376 17.4913 82.174 18.7673 81.647 19.9601C81.1477 21.1252 80.4542 22.1515 79.5665 23.0392C78.7066 23.9269 77.6941 24.6342 76.529 25.1613C75.3917 25.6606 74.1711 25.9103 72.8674 25.9103C71.5636 25.9103 70.3292 25.6606 69.1641 25.1613C68.0268 24.6342 67.0143 23.9269 66.1266 23.0392C65.2667 22.1515 64.5732 21.1252 64.0461 19.9601C63.5468 18.7673 63.2971 17.4913 63.2971 16.132C63.2971 14.7728 63.5468 13.5106 64.0461 12.3455C64.5732 11.1527 65.2667 10.1125 66.1266 9.22482C67.0143 8.33715 68.0268 7.64366 69.1641 7.14434C70.3292 6.61729 71.5636 6.35376 72.8674 6.35376C74.1711 6.35376 75.3917 6.61729 76.529 7.14434C77.6941 7.64366 78.7066 8.33715 79.5665 9.22482C80.4542 10.1125 81.1477 11.1527 81.647 12.3455C82.174 13.5106 82.4376 14.7728 82.4376 16.132Z" fill="#1D2B5F"/>
<path d="M95.7331 6.35376C96.704 6.35376 97.5362 6.49246 98.2297 6.76986C98.9232 7.01951 99.4919 7.29691 99.9357 7.60205C100.435 7.96266 100.837 8.37876 101.142 8.85034C101.586 8.37876 102.099 7.96266 102.682 7.60205C103.181 7.29691 103.778 7.01951 104.471 6.76986C105.165 6.49246 105.927 6.35376 106.76 6.35376C108.84 6.35376 110.505 7.01951 111.753 8.35102C113.001 9.68253 113.625 11.652 113.625 14.2596V25.7022H108.84V14.6757C108.84 13.5106 108.521 12.5952 107.883 11.9294C107.273 11.2637 106.552 10.9308 105.719 10.9308C104.887 10.9308 104.152 11.2637 103.514 11.9294C102.904 12.5952 102.599 13.5106 102.599 14.6757V25.7022H97.8136V14.6757C97.8136 13.5106 97.4946 12.5952 96.8566 11.9294C96.2463 11.2637 95.5251 10.9308 94.6929 10.9308C93.8607 10.9308 93.1256 11.2637 92.4876 11.9294C91.8773 12.5952 91.5722 13.5106 91.5722 14.6757V25.7022H86.7871V6.56181H90.3239L91.1561 8.43424C91.5444 8.04588 91.9744 7.69914 92.446 7.394C92.8343 7.14434 93.3059 6.90855 93.8607 6.68664C94.4155 6.46472 95.0396 6.35376 95.7331 6.35376Z" fill="#1D2B5F"/>
<path d="M128.605 6.35376C129.798 6.35376 130.935 6.60342 132.017 7.10273C133.099 7.57431 134.042 8.25393 134.846 9.1416C135.678 10.0015 136.33 11.0279 136.802 12.2207C137.301 13.4135 137.551 14.7173 137.551 16.132C137.551 17.5467 137.301 18.8505 136.802 20.0433C136.33 21.2361 135.678 22.2764 134.846 23.164C134.042 24.024 133.099 24.7036 132.017 25.2029C130.935 25.6745 129.798 25.9103 128.605 25.9103C127.8 25.9103 127.093 25.8132 126.483 25.619C125.9 25.4248 125.387 25.2168 124.943 24.9949C124.444 24.7175 124 24.3985 123.612 24.0378V32.3598H118.826V6.56181H122.363L123.195 8.43424C123.612 8.04588 124.097 7.69914 124.652 7.394C125.123 7.14434 125.692 6.90855 126.358 6.68664C127.024 6.46472 127.773 6.35376 128.605 6.35376ZM123.195 16.132C123.195 17.7132 123.653 18.9753 124.569 19.9185C125.484 20.8616 126.621 21.3332 127.981 21.3332C129.34 21.3332 130.477 20.8616 131.393 19.9185C132.308 18.9753 132.766 17.7132 132.766 16.132C132.766 14.5509 132.308 13.2887 131.393 12.3455C130.477 11.4024 129.34 10.9308 127.981 10.9308C126.621 10.9308 125.484 11.4024 124.569 12.3455C123.653 13.2887 123.195 14.5509 123.195 16.132Z" fill="#1D2B5F"/>
<path d="M149.832 6.35376C150.914 6.35376 151.913 6.54794 152.828 6.93629C153.743 7.29691 154.534 7.8101 155.2 8.47585C155.865 9.1416 156.379 9.93219 156.739 10.8476C157.128 11.763 157.322 12.7616 157.322 13.8435V25.7022H153.785L152.953 23.8298C152.509 24.2181 152.024 24.5649 151.496 24.87C151.025 25.1474 150.456 25.3971 149.79 25.619C149.125 25.8132 148.376 25.9103 147.544 25.9103C145.463 25.9103 143.868 25.411 142.758 24.4123C141.649 23.386 141.094 22.0822 141.094 20.501C141.094 19.5579 141.274 18.6979 141.635 17.9212C142.023 17.1168 142.661 16.4372 143.549 15.8824C144.437 15.2998 145.602 14.856 147.044 14.5509C148.514 14.218 150.345 14.0515 152.537 14.0515C152.537 12.9974 152.245 12.1791 151.663 11.5966C151.108 11.014 150.359 10.7228 149.416 10.7228C148.778 10.7228 148.265 10.8337 147.876 11.0556C147.516 11.2776 147.225 11.5134 147.003 11.763C146.753 12.0681 146.587 12.4149 146.503 12.8032H141.718C141.829 11.9156 142.079 11.0834 142.467 10.3067C142.883 9.52996 143.438 8.85034 144.132 8.2678C144.825 7.68527 145.643 7.22756 146.587 6.89469C147.557 6.53407 148.639 6.35376 149.832 6.35376ZM148.376 22.1654C149.624 22.1654 150.623 21.8048 151.372 21.0836C152.148 20.3346 152.537 19.3776 152.537 18.2125V17.3803C151.122 17.3803 149.985 17.4497 149.125 17.5884C148.265 17.6993 147.585 17.8796 147.086 18.1293C146.614 18.3512 146.295 18.6286 146.129 18.9615C145.962 19.2943 145.879 19.6688 145.879 20.0849C145.879 20.612 146.115 21.0974 146.587 21.5413C147.058 21.9574 147.655 22.1654 148.376 22.1654Z" fill="#1D2B5F"/>
<path d="M172.285 6.35376C173.422 6.35376 174.463 6.54794 175.406 6.93629C176.349 7.29691 177.153 7.83784 177.819 8.55907C178.513 9.25256 179.04 10.0986 179.4 11.0973C179.789 12.0959 179.983 13.2193 179.983 14.4676V25.7022H175.198V15.0918C175.198 13.8435 174.823 12.8449 174.074 12.0959C173.353 11.3192 172.41 10.9308 171.245 10.9308C170.08 10.9308 169.123 11.3192 168.374 12.0959C167.652 12.8449 167.292 13.8435 167.292 15.0918V25.7022H162.507V6.56181H166.044L166.876 8.43424C167.347 8.04588 167.861 7.69914 168.415 7.394C168.887 7.14434 169.442 6.90855 170.08 6.68664C170.745 6.46472 171.481 6.35376 172.285 6.35376Z" fill="#1D2B5F"/>
<path d="M183.12 6.56181H188.113L192.898 19.0447L197.267 6.56181H202.26C200.901 10.057 199.667 13.2193 198.557 16.0488C198.085 17.2693 197.614 18.4622 197.142 19.6272C196.698 20.7923 196.296 21.8603 195.936 22.8312C195.575 23.7743 195.27 24.5649 195.02 25.2029C194.77 25.8409 194.618 26.2154 194.562 26.3264C194.091 27.4637 193.619 28.4207 193.148 29.1974C192.704 30.0019 192.218 30.6538 191.691 31.1531C191.164 31.6524 190.596 32.013 189.985 32.2349C189.375 32.4568 188.682 32.5678 187.905 32.5678C187.683 32.5678 187.461 32.5539 187.239 32.5262C187.045 32.5262 186.879 32.5123 186.74 32.4846C186.546 32.4568 186.379 32.4152 186.24 32.3598V28.4068C187.295 28.4068 188.099 28.1711 188.654 27.6995C189.236 27.2279 189.68 26.6315 189.985 25.9103L190.401 24.87L183.12 6.56181Z" fill="#1D2B5F"/>
</svg>
