<svg width="184" height="30" viewBox="0 0 184 30" fill="none" xmlns="http://www.w3.org/2000/svg">
<path d="M22.9015 12.622C18.9983 12.622 15.8299 9.46567 15.8299 5.58651C15.8299 5.08053 15.8901 4.59864 15.9865 4.11676H6.58976C2.95154 4.11676 0 7.05625 0 10.6704V22.7777C0 26.4039 2.95154 29.3313 6.58976 29.3313H18.7573C22.4076 29.3313 25.3471 26.3918 25.3471 22.7777V12.1763C24.6002 12.4533 23.7689 12.622 22.9015 12.622Z" fill="#1D2B5F"/>
<path d="M25.3588 22.7777V12.1763C24.5998 12.4534 23.7686 12.622 22.9132 12.622C19.01 12.622 15.8416 9.46567 15.8416 5.58651C15.8416 5.08053 15.9018 4.59864 15.9982 4.11676H6.60148C2.98735 4.11676 0.0599071 7.00806 0.0117188 10.5981C8.68563 14.1761 17.6005 18.5251 25.3106 23.609C25.3347 23.3319 25.3588 23.0548 25.3588 22.7777Z" fill="#1D2B5F"/>
<path d="M23.4433 10.1919C26.2743 10.1919 28.5633 7.91497 28.5633 5.09595C28.5633 2.28898 26.2743 3.05176e-05 23.4433 3.05176e-05C20.6122 3.05176e-05 18.3232 2.27693 18.3232 5.09595C18.3232 7.90292 20.6122 10.1919 23.4433 10.1919Z" fill="#49578D"/>
<path d="M54.4628 16.6744C54.2613 17.5308 53.9212 18.3621 53.4427 19.1681C52.9641 19.9489 52.3721 20.6542 51.6669 21.2839C50.9616 21.8885 50.1556 22.3796 49.2488 22.7575C48.342 23.1101 47.3722 23.2864 46.3395 23.2864C45.1556 23.2864 44.0347 23.0597 42.9768 22.6063C41.9441 22.1278 41.0247 21.4855 40.2187 20.6794C39.4378 19.8734 38.8081 18.9414 38.3295 17.8835C37.8761 16.8004 37.6494 15.6417 37.6494 14.4075C37.6494 13.1732 37.8761 12.0271 38.3295 10.9692C38.8081 9.8861 39.4378 8.94153 40.2187 8.13549C41.0247 7.32946 41.9441 6.69974 42.9768 6.24635C44.0347 5.76776 45.1556 5.52847 46.3395 5.52847C47.3722 5.52847 48.342 5.71739 49.2488 6.09522C50.1556 6.44786 50.9616 6.93903 51.6669 7.56875C52.3721 8.17328 52.9641 8.87856 53.4427 9.68459C53.9212 10.4654 54.2613 11.2841 54.4628 12.1405H50.1178C49.9163 11.6871 49.6392 11.2841 49.2865 10.9314C48.9843 10.6292 48.5939 10.3521 48.1153 10.1002C47.6367 9.82313 47.0448 9.68459 46.3395 9.68459C45.1052 9.68459 44.0725 10.1128 43.2413 10.9692C42.4101 11.8256 41.9944 12.9717 41.9944 14.4075C41.9944 15.8432 42.4101 16.9893 43.2413 17.8457C44.0725 18.7021 45.1052 19.1303 46.3395 19.1303C47.0448 19.1303 47.6367 19.0044 48.1153 18.7525C48.5939 18.5006 48.9843 18.2235 49.2865 17.9213C49.6392 17.5686 49.9163 17.153 50.1178 16.6744H54.4628Z" fill="#1D2B5F"/>
<path d="M61.6416 14.4075C61.6416 15.8432 62.0572 16.9893 62.8884 17.8457C63.7196 18.7021 64.7523 19.1303 65.9866 19.1303C67.2208 19.1303 68.2536 18.7021 69.0848 17.8457C69.916 16.9893 70.3316 15.8432 70.3316 14.4075C70.3316 12.9717 69.916 11.8256 69.0848 10.9692C68.2536 10.1128 67.2208 9.68459 65.9866 9.68459C64.7523 9.68459 63.7196 10.1128 62.8884 10.9692C62.0572 11.8256 61.6416 12.9717 61.6416 14.4075ZM74.6767 14.4075C74.6767 15.6417 74.4374 16.8004 73.9588 17.8835C73.5054 18.9414 72.8757 19.8734 72.0696 20.6794C71.2888 21.4855 70.3694 22.1278 69.3115 22.6063C68.2787 23.0597 67.1704 23.2864 65.9866 23.2864C64.8027 23.2864 63.6818 23.0597 62.6239 22.6063C61.5912 22.1278 60.6718 21.4855 59.8658 20.6794C59.0849 19.8734 58.4552 18.9414 57.9766 17.8835C57.5232 16.8004 57.2965 15.6417 57.2965 14.4075C57.2965 13.1732 57.5232 12.0271 57.9766 10.9692C58.4552 9.8861 59.0849 8.94153 59.8658 8.13549C60.6718 7.32946 61.5912 6.69974 62.6239 6.24635C63.6818 5.76776 64.8027 5.52847 65.9866 5.52847C67.1704 5.52847 68.2787 5.76776 69.3115 6.24635C70.3694 6.69974 71.2888 7.32946 72.0696 8.13549C72.8757 8.94153 73.5054 9.8861 73.9588 10.9692C74.4374 12.0271 74.6767 13.1732 74.6767 14.4075Z" fill="#1D2B5F"/>
<path d="M86.7495 5.52847C87.6311 5.52847 88.3867 5.65442 89.0164 5.9063C89.6462 6.133 90.1625 6.38489 90.5655 6.66196C91.0189 6.98941 91.3842 7.36724 91.6612 7.79545C92.0643 7.36724 92.5302 6.98941 93.0592 6.66196C93.5126 6.38489 94.0542 6.133 94.6839 5.9063C95.3136 5.65442 96.0063 5.52847 96.7619 5.52847C98.6511 5.52847 100.162 6.133 101.296 7.34205C102.429 8.55111 102.996 10.3395 102.996 12.7072V23.0975H98.6511V13.0851C98.6511 12.0271 98.3614 11.1959 97.7821 10.5914C97.2279 9.98686 96.573 9.68459 95.8174 9.68459C95.0617 9.68459 94.3942 9.98686 93.8149 10.5914C93.2607 11.1959 92.9836 12.0271 92.9836 13.0851V23.0975H88.6386V13.0851C88.6386 12.0271 88.3489 11.1959 87.7696 10.5914C87.2155 9.98686 86.5606 9.68459 85.8049 9.68459C85.0492 9.68459 84.3817 9.98686 83.8024 10.5914C83.2483 11.1959 82.9712 12.0271 82.9712 13.0851V23.0975H78.6261V5.71739H81.8377L82.5933 7.41762C82.946 7.06498 83.3364 6.75012 83.7646 6.47305C84.1173 6.24635 84.5455 6.03224 85.0492 5.83074C85.553 5.62923 86.1198 5.52847 86.7495 5.52847Z" fill="#1D2B5F"/>
<path d="M116.598 5.52847C117.681 5.52847 118.714 5.75517 119.696 6.20857C120.679 6.63677 121.535 7.25389 122.265 8.05993C123.021 8.84077 123.613 9.77275 124.041 10.8559C124.495 11.939 124.721 13.1228 124.721 14.4075C124.721 15.6921 124.495 16.8759 124.041 17.959C123.613 19.0422 123.021 19.9867 122.265 20.7928C121.535 21.5736 120.679 22.1907 119.696 22.6441C118.714 23.0723 117.681 23.2864 116.598 23.2864C115.867 23.2864 115.225 23.1983 114.671 23.022C114.142 22.8456 113.676 22.6567 113.273 22.4552C112.82 22.2033 112.417 21.9137 112.064 21.5862V29.1428H107.719V5.71739H110.931L111.686 7.41762C112.064 7.06498 112.505 6.75012 113.009 6.47305C113.437 6.24635 113.953 6.03224 114.558 5.83074C115.162 5.62923 115.842 5.52847 116.598 5.52847ZM111.686 14.4075C111.686 15.8432 112.102 16.9893 112.933 17.8457C113.764 18.7021 114.797 19.1303 116.031 19.1303C117.265 19.1303 118.298 18.7021 119.129 17.8457C119.961 16.9893 120.376 15.8432 120.376 14.4075C120.376 12.9717 119.961 11.8256 119.129 10.9692C118.298 10.1128 117.265 9.68459 116.031 9.68459C114.797 9.68459 113.764 10.1128 112.933 10.9692C112.102 11.8256 111.686 12.9717 111.686 14.4075Z" fill="#1D2B5F"/>
<path d="M135.873 5.52847C136.855 5.52847 137.762 5.70479 138.593 6.05743C139.425 6.38489 140.143 6.85087 140.747 7.4554C141.352 8.05993 141.818 8.7778 142.145 9.60903C142.498 10.4403 142.674 11.347 142.674 12.3294V23.0975H139.463L138.707 21.3973C138.304 21.7499 137.863 22.0648 137.384 22.3419C136.956 22.5938 136.44 22.8204 135.835 23.022C135.231 23.1983 134.551 23.2864 133.795 23.2864C131.906 23.2864 130.458 22.833 129.45 21.9263C128.442 20.9943 127.939 19.8104 127.939 18.3747C127.939 17.5182 128.102 16.7374 128.43 16.0321C128.783 15.3017 129.362 14.6845 130.168 14.1808C130.974 13.6518 132.032 13.2488 133.342 12.9717C134.677 12.6694 136.339 12.5183 138.329 12.5183C138.329 11.5611 138.065 10.8181 137.536 10.2891C137.032 9.76016 136.352 9.49568 135.495 9.49568C134.916 9.49568 134.45 9.59643 134.097 9.79794C133.77 9.99945 133.505 10.2136 133.304 10.4403C133.077 10.7173 132.926 11.0322 132.85 11.3848H128.505C128.606 10.5788 128.833 9.82313 129.186 9.11785C129.563 8.41257 130.067 7.79545 130.697 7.26649C131.327 6.73753 132.07 6.32191 132.926 6.01965C133.808 5.6922 134.79 5.52847 135.873 5.52847ZM134.551 19.886C135.684 19.886 136.591 19.5585 137.271 18.9036C137.976 18.2235 138.329 17.3545 138.329 16.2966V15.5409C137.044 15.5409 136.012 15.6039 135.231 15.7299C134.45 15.8306 133.833 15.9943 133.379 16.221C132.951 16.4225 132.662 16.6744 132.51 16.9767C132.359 17.279 132.284 17.619 132.284 17.9968C132.284 18.4754 132.498 18.9162 132.926 19.3192C133.354 19.6971 133.896 19.886 134.551 19.886Z" fill="#1D2B5F"/>
<path d="M156.261 5.52847C157.294 5.52847 158.238 5.70479 159.095 6.05743C159.951 6.38489 160.682 6.87606 161.286 7.53097C161.916 8.16068 162.395 8.92893 162.722 9.83572C163.075 10.7425 163.251 11.7627 163.251 12.8961V23.0975H158.906V13.4629C158.906 12.3294 158.566 11.4226 157.886 10.7425C157.231 10.0372 156.374 9.68459 155.317 9.68459C154.259 9.68459 153.39 10.0372 152.71 10.7425C152.055 11.4226 151.727 12.3294 151.727 13.4629V23.0975H147.382V5.71739H150.594L151.349 7.41762C151.778 7.06498 152.244 6.75012 152.747 6.47305C153.176 6.24635 153.679 6.03224 154.259 5.83074C154.863 5.62923 155.531 5.52847 156.261 5.52847Z" fill="#1D2B5F"/>
<path d="M166.099 5.71739H170.633L174.978 17.0523L178.946 5.71739H183.48C182.245 8.89115 181.124 11.7627 180.117 14.3319C179.689 15.4402 179.26 16.5233 178.832 17.5812C178.429 18.6391 178.064 19.6089 177.737 20.4905C177.409 21.3469 177.132 22.0648 176.905 22.6441C176.679 23.2235 176.54 23.5635 176.49 23.6643C176.062 24.697 175.633 25.566 175.205 26.2713C174.802 27.0018 174.361 27.5937 173.883 28.0471C173.404 28.5005 172.888 28.8279 172.334 29.0294C171.779 29.2309 171.15 29.3317 170.444 29.3317C170.243 29.3317 170.041 29.3191 169.84 29.2939C169.664 29.2939 169.512 29.2813 169.387 29.2561C169.21 29.2309 169.059 29.1932 168.933 29.1428V25.5534C169.89 25.5534 170.621 25.3393 171.125 24.9111C171.654 24.4829 172.057 23.9413 172.334 23.2864L172.711 22.3419L166.099 5.71739Z" fill="#1D2B5F"/>
</svg>
