<svg width="52" height="52" viewBox="0 0 52 52" fill="none" xmlns="http://www.w3.org/2000/svg">
<path d="M22.5713 49.9998H29.4284" stroke="#1D2B5F" stroke-width="2.2" stroke-linecap="round" stroke-linejoin="round"/>
<path d="M39.7146 25.9997C39.7238 23.4326 39.0123 20.9144 37.661 18.7318C36.3098 16.5491 34.373 14.7894 32.0711 13.6531C29.7692 12.5168 27.1945 12.0493 24.6401 12.304C22.0856 12.5586 19.6539 13.5251 17.6216 15.0935C15.5893 16.6619 14.038 18.7692 13.1442 21.1757C12.2504 23.5822 12.05 26.1912 12.5658 28.706C13.0815 31.2208 14.2928 33.5403 16.0617 35.4007C17.8306 37.2611 20.0862 38.5876 22.5718 39.2294V43.1425H29.4289V39.2294C32.3673 38.4764 34.9722 36.7682 36.8341 34.3734C38.696 31.9787 39.7092 29.0331 39.7146 25.9997V25.9997Z" stroke="#1D2B5F" stroke-width="2.2" stroke-linecap="round" stroke-linejoin="round"/>
<path d="M26 5.42833V1.99976" stroke="#1D2B5F" stroke-width="2.2" stroke-linecap="round" stroke-linejoin="round"/>
<path d="M46.5713 22.5712H49.9999" stroke="#1D2B5F" stroke-width="2.2" stroke-linecap="round" stroke-linejoin="round"/>
<path d="M2 25.9998H5.42857" stroke="#1D2B5F" stroke-width="2.2" stroke-linecap="round" stroke-linejoin="round"/>
<path d="M40.5459 38.8318L42.971 41.2569" stroke="#1D2B5F" stroke-width="2.2" stroke-linecap="round" stroke-linejoin="round"/>
<path d="M9.02832 7.31396L11.4535 9.73911" stroke="#1D2B5F" stroke-width="2.2" stroke-linecap="round" stroke-linejoin="round"/>
<path d="M40.5459 9.73911L42.971 7.31396" stroke="#1D2B5F" stroke-width="2.2" stroke-linecap="round" stroke-linejoin="round"/>
<path d="M9.02832 41.2569L11.4535 38.8318" stroke="#1D2B5F" stroke-width="2.2" stroke-linecap="round" stroke-linejoin="round"/>
</svg>
