<svg width="66" height="66" viewBox="0 0 66 66" fill="none" xmlns="http://www.w3.org/2000/svg">
<path d="M26.8457 23.6329V40.6296C26.8457 40.9304 26.9256 41.2258 27.0771 41.4857C27.2286 41.7455 27.4464 41.9605 27.7081 42.1087C27.9699 42.2569 28.2663 42.3329 28.5671 42.3291C28.8679 42.3252 29.1622 42.2416 29.4201 42.0868L43.0175 33.5907C43.2691 33.4397 43.4772 33.2261 43.6218 32.9707C43.7663 32.7154 43.8423 32.4269 43.8423 32.1335C43.8423 31.8401 43.7663 31.5517 43.6218 31.2963C43.4772 31.041 43.2691 30.8274 43.0175 30.6763L29.4201 22.1802C29.1624 22.0264 28.8686 21.9434 28.5685 21.9397C28.2684 21.936 27.9726 22.0118 27.7112 22.1593C27.4498 22.3068 27.2321 22.5208 27.0801 22.7796C26.9281 23.0384 26.8472 23.3328 26.8457 23.6329V23.6329Z" stroke="#1D2B5F" stroke-width="2.2" stroke-linecap="round" stroke-linejoin="round"/>
<circle cx="33.0258" cy="33.0258" r="31.0258" stroke="#1D2B5F" stroke-width="2.2" stroke-linecap="round" stroke-linejoin="round"/>
</svg>
