<svg width="48" height="36" viewBox="0 0 48 36" fill="none" xmlns="http://www.w3.org/2000/svg">
<path d="M46.7073 34.2575C45.6549 31.2607 43.6991 28.664 41.1095 26.8251C38.5198 24.9862 35.4237 23.9954 32.2475 23.9894H32.2338C29.058 23.9956 25.9622 24.9864 23.3729 26.8253C20.7837 28.6643 18.8284 31.2609 17.7764 34.2575" stroke="#1D2B5F" stroke-width="2.2" stroke-linecap="round" stroke-linejoin="round"/>
<path d="M32.2337 20.5668C37.432 20.5668 41.6461 16.3527 41.6461 11.1544C41.6461 5.95602 37.432 1.74194 32.2337 1.74194C27.0354 1.74194 22.8213 5.95602 22.8213 11.1544C22.8213 16.3527 27.0354 20.5668 32.2337 20.5668Z" stroke="#1D2B5F" stroke-width="2.2" stroke-linecap="round" stroke-linejoin="round"/>
<path d="M10.9372 23.9895C14.7178 23.9895 17.7826 20.9247 17.7826 17.1441C17.7826 13.3635 14.7178 10.2987 10.9372 10.2987C7.15658 10.2987 4.0918 13.3635 4.0918 17.1441C4.0918 20.9247 7.15658 23.9895 10.9372 23.9895Z" stroke="#1D2B5F" stroke-width="2.2" stroke-linecap="round" stroke-linejoin="round"/>
<path d="M12.966 27.6132C10.5466 27.1264 8.03274 27.5309 5.88814 28.752C3.74355 29.9732 2.11287 31.9287 1.29688 34.2578" stroke="#1D2B5F" stroke-width="2.2" stroke-linecap="round" stroke-linejoin="round"/>
</svg>
