<svg width="28" height="32" viewBox="0 0 28 32" fill="none" xmlns="http://www.w3.org/2000/svg">
<path d="M13.635 6.076C13.6806 6.44203 13.6478 6.81358 13.5389 7.16598C13.4299 7.51838 13.2473 7.84358 13.003 8.12C12.7484 8.39653 12.4392 8.61725 12.095 8.76823C11.7507 8.91921 11.3789 8.99716 11.003 8.99716C10.6271 8.99716 10.2553 8.91921 9.91108 8.76823C9.56683 8.61725 9.25764 8.39653 9.00302 8.12C8.75878 7.84358 8.57612 7.51838 8.46716 7.16598C8.3582 6.81358 8.32543 6.44203 8.37102 6.076L9.00036 1H13.0004L13.635 6.076Z" stroke="#1D2B5F" stroke-width="1.5" stroke-linecap="round" stroke-linejoin="round"/>
<path d="M11.0005 13.0007C11.0994 13.0007 11.196 13.0301 11.2783 13.085C11.3605 13.1399 11.4246 13.218 11.4624 13.3094C11.5003 13.4008 11.5102 13.5013 11.4909 13.5983C11.4716 13.6953 11.424 13.7844 11.354 13.8543C11.2841 13.9242 11.195 13.9718 11.098 13.9911C11.001 14.0104 10.9005 14.0005 10.8091 13.9627C10.7178 13.9248 10.6397 13.8607 10.5848 13.7785C10.5298 13.6963 10.5005 13.5996 10.5005 13.5007C10.5005 13.3681 10.5532 13.2409 10.6469 13.1472C10.7407 13.0534 10.8679 13.0007 11.0005 13.0007" stroke="#1D2B5F" stroke-width="1.5" stroke-linecap="round" stroke-linejoin="round"/>
<path d="M11.0005 18.9993C11.0994 18.9993 11.196 19.0286 11.2783 19.0835C11.3605 19.1385 11.4246 19.2166 11.4624 19.3079C11.5003 19.3993 11.5102 19.4998 11.4909 19.5968C11.4716 19.6938 11.424 19.7829 11.354 19.8528C11.2841 19.9227 11.195 19.9704 11.098 19.9897C11.001 20.009 10.9005 19.9991 10.8091 19.9612C10.7178 19.9234 10.6397 19.8593 10.5848 19.7771C10.5298 19.6948 10.5005 19.5982 10.5005 19.4993C10.5005 19.3667 10.5532 19.2395 10.6469 19.1457C10.7407 19.0519 10.8679 18.9993 11.0005 18.9993" stroke="#1D2B5F" stroke-width="1.5" stroke-linecap="round" stroke-linejoin="round"/>
<path d="M11.0005 25.0002C11.0994 25.0002 11.196 25.0296 11.2783 25.0845C11.3605 25.1394 11.4246 25.2175 11.4624 25.3089C11.5003 25.4003 11.5102 25.5008 11.4909 25.5978C11.4716 25.6948 11.424 25.7839 11.354 25.8538C11.2841 25.9237 11.195 25.9713 11.098 25.9906C11.001 26.0099 10.9005 26 10.8091 25.9622C10.7178 25.9243 10.6397 25.8603 10.5848 25.778C10.5298 25.6958 10.5005 25.5991 10.5005 25.5002C10.5005 25.3676 10.5532 25.2405 10.6469 25.1467C10.7407 25.0529 10.8679 25.0002 11.0005 25.0002" stroke="#1D2B5F" stroke-width="1.5" stroke-linecap="round" stroke-linejoin="round"/>
<path d="M25 31H3C2.46957 31 1.96086 30.7893 1.58579 30.4142C1.21071 30.0391 1 29.5304 1 29V3C1 2.46957 1.21071 1.96086 1.58579 1.58579C1.96086 1.21071 2.46957 1 3 1H21.172C21.7021 1.00011 22.2104 1.21064 22.5853 1.58533L26.4147 5.41467C26.7894 5.7896 26.9999 6.29794 27 6.828V29C27 29.5304 26.7893 30.0391 26.4142 30.4142C26.0391 30.7893 25.5304 31 25 31V31Z" stroke="#1D2B5F" stroke-width="1.5" stroke-linecap="round" stroke-linejoin="round"/>
</svg>
