<svg width="56" height="38" viewBox="0 0 56 38" fill="none" xmlns="http://www.w3.org/2000/svg">
<path d="M29.4262 37.1245L18.1904 36.9265C14.5525 36.8575 10.9056 36.9952 7.339 36.2803C1.91342 35.212 1.52905 29.9744 1.12685 25.581C0.572663 19.4044 0.787207 13.1157 1.83304 6.99063C2.42344 3.55384 4.74692 1.50309 8.34011 1.27993C20.4698 0.470043 32.6801 0.566023 44.7828 0.943863C46.061 0.978501 47.348 1.16782 48.6084 1.38331C54.8298 2.43434 54.9816 8.36979 55.3849 13.3663C55.7871 18.4144 55.6172 23.4884 54.8485 28.5021C54.2318 32.6534 53.0518 36.1346 48.072 36.4706C41.8327 36.9101 35.7366 37.2639 29.4797 37.1512C29.48 37.1245 29.4441 37.1245 29.4262 37.1245ZM22.8207 26.6148C27.5225 24.013 32.1346 21.4546 36.8096 18.8703C32.099 16.2685 27.4956 13.7101 22.8207 11.1257V26.6148Z" fill="white"/>
</svg>
