<svg width="39" height="39" viewBox="0 0 39 39" fill="none" xmlns="http://www.w3.org/2000/svg">
<path fill-rule="evenodd" clip-rule="evenodd" d="M33.16 5.70582C29.6039 2.14667 24.8744 0.185587 19.8357 0.183586C9.45364 0.183586 1.00389 8.6301 0.999732 19.0123C0.998347 22.3309 1.86573 25.5705 3.51397 28.4259L0.841797 38.1836L10.827 35.5652C13.5782 37.0652 16.6757 37.8558 19.8282 37.8571H19.836C30.217 37.8571 38.6675 29.4095 38.6717 19.0273C38.6737 13.9959 36.7163 9.26497 33.16 5.70582V5.70582ZM19.836 34.6768H19.8295C17.0204 34.6757 14.265 33.9213 11.8613 32.4953L11.2896 32.1561L5.36431 33.71L6.94591 27.9346L6.57362 27.3426C5.00648 24.8507 4.17874 21.9706 4.17998 19.0134C4.18341 10.3842 11.2066 3.36383 19.8422 3.36383C24.0237 3.36542 27.9546 4.9955 30.9104 7.95374C33.8662 10.912 35.4931 14.8442 35.4915 19.0261C35.4879 27.6559 28.4649 34.6768 19.836 34.6768V34.6768ZM28.4234 22.9554C27.9527 22.7199 25.6388 21.5816 25.2074 21.4246C24.776 21.2676 24.4623 21.1891 24.1485 21.6601C23.8348 22.1311 22.9328 23.1909 22.6582 23.5049C22.3837 23.8189 22.1092 23.8582 21.6385 23.6226C21.1679 23.3872 19.6514 22.8904 17.8537 21.2874C16.4546 20.0399 15.51 18.4991 15.2355 18.0281C14.9609 17.557 15.2063 17.3024 15.4419 17.0679C15.6536 16.857 15.9125 16.5183 16.1478 16.2436C16.3831 15.9688 16.4616 15.7726 16.6184 15.4586C16.7753 15.1446 16.6969 14.8698 16.5792 14.6343C16.4616 14.3988 15.5204 12.083 15.1281 11.141C14.7461 10.2235 14.3581 10.3476 14.0692 10.3333C13.795 10.3196 13.4809 10.3167 13.1672 10.3167C12.8534 10.3167 12.3436 10.4345 11.9121 10.9055C11.4807 11.3765 10.265 12.5148 10.265 14.8306C10.265 17.1463 11.9514 19.3836 12.1867 19.6976C12.422 20.0116 15.5054 24.764 20.2266 26.802C21.3495 27.2867 22.2262 27.5761 22.9097 27.7931C24.0372 28.1511 25.0631 28.1006 25.8741 27.9795C26.7783 27.8444 28.6586 26.8413 29.0509 25.7422C29.4431 24.6432 29.4431 23.7012 29.3254 23.5049C29.2078 23.3087 28.894 23.1909 28.4234 22.9554" fill="white"/>
</svg>
