<svg width="28" height="32" viewBox="0 0 28 32" fill="none" xmlns="http://www.w3.org/2000/svg">
<path d="M26.6004 29C26.6004 29.5304 26.4107 30.0391 26.0732 30.4142C25.7356 30.7893 25.2778 31 24.8004 31H3.20039C2.723 31 2.26516 30.7893 1.9276 30.4142C1.59003 30.0391 1.40039 29.5304 1.40039 29V3C1.40039 2.73736 1.44695 2.47728 1.53741 2.23463C1.62787 1.99198 1.76045 1.7715 1.9276 1.58579C2.26516 1.21071 2.723 1 3.20039 1H21.2004C21.6698 1.00005 22.1207 1.20387 22.4568 1.568L26.0568 5.412C26.2288 5.59831 26.3655 5.82099 26.4589 6.06693C26.5523 6.31287 26.6004 6.57708 26.6004 6.844V29Z" stroke="#1D2B5F" stroke-width="1.5" stroke-linecap="round" stroke-linejoin="round"/>
<path d="M11.2993 12.9402V26.4235" stroke="#1D2B5F" stroke-width="1.5" stroke-linecap="round" stroke-linejoin="round"/>
<path d="M5.89941 19.682H22.0994" stroke="#1D2B5F" stroke-width="1.5" stroke-linecap="round" stroke-linejoin="round"/>
<path d="M21.4994 8.44604H6.49941C6.16804 8.44604 5.89941 8.78142 5.89941 9.19512V25.6747C5.89941 26.0884 6.16804 26.4238 6.49941 26.4238H21.4994C21.8308 26.4238 22.0994 26.0884 22.0994 25.6747V9.19512C22.0994 8.78142 21.8308 8.44604 21.4994 8.44604Z" stroke="#1D2B5F" stroke-width="1.5" stroke-linecap="round" stroke-linejoin="round"/>
<path d="M5.89941 12.9402H22.0994" stroke="#1D2B5F" stroke-width="1.5" stroke-linecap="round" stroke-linejoin="round"/>
</svg>
