<svg width="58" height="59" viewBox="0 0 58 59" fill="none" xmlns="http://www.w3.org/2000/svg">
<path fill-rule="evenodd" clip-rule="evenodd" d="M49.3932 49.8177C44.2073 54.9421 37.0796 58.1057 29.213 58.1057C26.2465 58.1057 23.385 57.6558 20.6931 56.8205C21.874 54.9019 23.5949 51.8189 24.2267 49.3384C24.5812 47.9914 26.0227 42.5089 26.0227 42.5089C26.9444 44.3049 29.6856 45.8173 32.5923 45.8173C41.2414 45.8173 47.4801 37.8535 47.4801 27.9519C47.4801 18.452 39.729 11.3626 29.7801 11.3626C17.3736 11.3626 10.8041 19.6809 10.8041 28.7317C10.8041 32.9618 13.0491 38.1843 16.641 39.8622C17.1846 40.1221 17.4918 40.0039 17.6099 39.4841C17.6492 39.3173 17.7577 38.8816 17.8864 38.3648C18.0677 37.6369 18.289 36.7481 18.4134 36.2229C18.4843 35.9393 18.4607 35.6794 18.2243 35.3958C17.0428 33.9543 16.0975 31.3076 16.0975 28.8499C16.0975 22.5166 20.8947 16.3961 29.0712 16.3961C36.137 16.3961 41.076 21.1933 41.076 28.07C41.076 35.8212 37.1532 41.2092 32.0488 41.2092C29.2366 41.2092 27.1098 38.8696 27.7951 36.0102C28.0896 34.7903 28.4769 33.5375 28.8536 32.3189C29.5351 30.1145 30.1819 28.0222 30.1819 26.4395C30.1819 24.2417 29.0003 22.3985 26.5426 22.3985C23.6596 22.3985 21.3437 25.3761 21.3437 29.3698C21.3437 31.8983 22.1944 33.6234 22.1944 33.6234C22.1944 33.6234 19.3587 45.6519 18.8388 47.8969C18.2722 50.3756 18.4839 53.8683 18.7434 56.1371C8.06365 51.953 0.500732 41.5564 0.500732 29.3934C0.500732 29.3828 0.500738 29.3721 0.50075 29.3615C0.517996 13.5194 13.3669 0.681152 29.213 0.681152C29.2207 0.681152 29.2285 0.681155 29.2362 0.681162C29.3161 0.681225 29.3958 0.681614 29.4755 0.682328C45.2114 0.823281 57.925 13.6245 57.878 29.4407C57.878 37.4071 54.6332 44.6159 49.3932 49.8177Z" fill="white"/>
</svg>
