<svg width="64" height="85" viewBox="0 0 64 85" fill="none" xmlns="http://www.w3.org/2000/svg">
<path d="M56.0835 34.75H8.08335C5.13782 34.75 2.75 37.1378 2.75 40.0833V77.4168C2.75 80.3623 5.13782 82.7501 8.08335 82.7501H56.0835C59.029 82.7501 61.4168 80.3623 61.4168 77.4168V40.0833C61.4168 37.1378 59.029 34.75 56.0835 34.75Z" stroke="#1D2B5F" stroke-width="4.5" stroke-linecap="round" stroke-linejoin="round"/>
<path d="M13.418 34.7501V21.4167C13.418 16.466 15.3846 11.718 18.8853 8.21735C22.386 4.71667 27.134 2.75 32.0847 2.75C37.0354 2.75 41.7834 4.71667 45.284 8.21735C48.7847 11.718 50.7514 16.466 50.7514 21.4167V34.7501" stroke="#1D2B5F" stroke-width="4.5" stroke-linecap="round" stroke-linejoin="round"/>
</svg>
