<svg width="256" height="256" viewBox="0 0 256 256" fill="none" xmlns="http://www.w3.org/2000/svg">
<path d="M239 127.5C239 149.553 232.461 171.11 220.209 189.446C207.957 207.782 190.543 222.073 170.169 230.513C149.795 238.952 127.376 241.16 105.747 236.858C84.1186 232.555 64.2512 221.936 48.6576 206.342C33.0641 190.749 22.4447 170.881 18.1425 149.253C13.8402 127.624 16.0483 105.205 24.4875 84.8308C32.9266 64.4568 47.2179 47.0429 65.5539 34.7911C83.89 22.5394 105.447 16 127.5 16" stroke="#1D2B5F" stroke-width="30.0683" stroke-linecap="round" stroke-linejoin="round"/>
<path d="M239 43.856L137.349 145.507C136.056 146.801 134.521 147.828 132.831 148.529C131.141 149.23 129.33 149.591 127.5 149.591C125.67 149.591 123.859 149.23 122.169 148.529C120.479 147.828 118.944 146.801 117.651 145.507L85.6875 113.562" stroke="#1D2B5F" stroke-width="30.0683" stroke-linecap="round" stroke-linejoin="round"/>
</svg>
