<svg width="21" height="21" viewBox="0 0 21 21" fill="none" xmlns="http://www.w3.org/2000/svg">
<path d="M16.3709 6.30875C16.2896 6.22674 16.1928 6.16164 16.0862 6.11722C15.9795 6.0728 15.8652 6.04993 15.7497 6.04993C15.6341 6.04993 15.5198 6.0728 15.4131 6.11722C15.3065 6.16164 15.2097 6.22674 15.1284 6.30875L8.60965 12.8363L5.8709 10.0887C5.78644 10.0072 5.68675 9.94302 5.5775 9.89996C5.46825 9.85691 5.35159 9.8358 5.23418 9.83783C5.11677 9.83986 5.00092 9.865 4.89322 9.9118C4.78553 9.95861 4.68811 10.0262 4.60653 10.1106C4.52494 10.1951 4.46079 10.2948 4.41774 10.404C4.37469 10.5133 4.35357 10.6299 4.3556 10.7473C4.35763 10.8648 4.38277 10.9806 4.42958 11.0883C4.47638 11.196 4.54394 11.2934 4.6284 11.375L7.9884 14.735C8.06974 14.817 8.16652 14.8821 8.27315 14.9265C8.37977 14.971 8.49414 14.9938 8.60965 14.9938C8.72516 14.9938 8.83953 14.971 8.94616 14.9265C9.05278 14.8821 9.14956 14.817 9.2309 14.735L16.3709 7.595C16.4597 7.51306 16.5306 7.41362 16.5791 7.30293C16.6276 7.19224 16.6526 7.07271 16.6526 6.95188C16.6526 6.83104 16.6276 6.71151 16.5791 6.60082C16.5306 6.49013 16.4597 6.39069 16.3709 6.30875Z" fill="#1A1930"/>
</svg>
