<svg fill="none" height="21" viewBox="0 0 21 21" width="21" xmlns="http://www.w3.org/2000/svg"><path d="m11.6375 10.6925c.4669-.4041.8414-.90398 1.098-1.4656.2567-.56163.3895-1.1719.3895-1.7894 0-1.16032-.4609-2.27312-1.2814-3.09359s-1.93328-1.28141-3.0936-1.28141-2.27312.46094-3.09359 1.28141-1.28141 1.93327-1.28141 3.09359c-.00001.6175.13283 1.22777.38948 1.7894.25666.56162.63114 1.0615 1.09802 1.4656-1.22488.5546-2.26409 1.4503-2.99339 2.58-.7293 1.1296-1.11782 2.4454-1.11911 3.79 0 .2321.09219.4546.25628.6187.1641.1641.38666.2563.61872.2563s.45462-.0922.61872-.2563c.16409-.1641.25628-.3866.25628-.6187 0-1.3924.55312-2.7277 1.53769-3.7123s2.31992-1.5377 3.71231-1.5377c1.3924 0 2.7277.5531 3.7123 1.5377s1.5377 2.3199 1.5377 3.7123c0 .2321.0922.4546.2563.6187s.3866.2563.6187.2563.4546-.0922.6187-.2563.2563-.3866.2563-.6187c-.0013-1.3446-.3898-2.6604-1.1191-3.79-.7293-1.1297-1.7685-2.0254-2.9934-2.58zm-2.8875-.63c-.51918 0-1.02669-.15395-1.45837-.44239s-.76813-.69841-.96681-1.17807c-.19868-.47965-.25067-1.00745-.14938-1.51665s.35129-.97693.7184-1.34405c.36712-.36711.83485-.61711 1.34405-.7184s1.037-.0493 1.51665.14938c.47966.19868.88966.53513 1.17806.96681s.4424.93919.4424 1.45837c0 .69619-.2766 1.36387-.7688 1.85616-.4923.49228-1.16001.76884-1.8562.76884zm10.2462-2.07375c-.0813-.08201-.1781-.14711-.2847-.19153s-.221-.06729-.3365-.06729-.2299.02287-.3365.06729-.2034.10952-.2847.19153l-1.75 1.75-.5425-.55125c-.0814-.08201-.1782-.14711-.2848-.19153s-.221-.06729-.3365-.06729-.2299.02287-.3365.06729-.2034.10952-.2847.19153c-.163.16394-.2545.38571-.2545.61687 0 .23113.0915.45293.2545.61683l1.1725 1.1726c.1639.1629.3857.2544.6168.2544.2312 0 .453-.0915.6169-.2544l2.3363-2.3363c.0883-.07934.1596-.17584.2094-.2836.0499-.10777.0773-.22456.0805-.34326.0033-.11869-.0176-.23682-.0614-.34717-.0439-.11035-.1097-.21063-.1936-.29472z" fill="#1a1930"/></svg>