<svg fill="none" height="15" viewBox="0 0 15 15" width="15" xmlns="http://www.w3.org/2000/svg"><path d="m11.6008 9.14612-2.85109-1.64612 2.85109-1.64612c.1435-.08292.2481-.21944.291-.37953s.0204-.33065-.0624-.47419c-.0829-.14354-.2193-.24829-.3794-.29124s-.3307-.02058-.4742.0622l-2.85129 1.64623v-3.29235c0-.16576-.06585-.32473-.18306-.44194s-.27618-.18306-.44194-.18306-.32473.06585-.44194.18306-.18306.27618-.18306.44194v3.29235l-2.85125-1.64625c-.14358-.08278-.31415-.10515-.47422-.0622s-.29653.14771-.37938.29124c-.08285.14354-.10532.3141-.06245.47419s.14756.29661.29105.37953l2.85106 1.64614-2.85106 1.64612c-.14349.08292-.24818.21944-.29105.37953s-.0204.33065.06245.47419c.08285.14356.21931.24826.37938.29126.16007.0429.33064.0206.47422-.0622l2.85125-1.64625v3.29235c0 .1658.06585.3247.18306.4419.11721.1173.27618.1831.44194.1831s.32473-.0658.44194-.1831c.11721-.1172.18306-.2761.18306-.4419v-3.29235l2.85129 1.64625c.1435.0828.3141.1052.4742.0622.1601-.0429.2965-.1477.3794-.29124.0828-.14354.1053-.3141.0624-.47419s-.1475-.29661-.291-.37953z" fill="#2d2b5c"/></svg>