<svg fill="none" height="50" viewBox="0 0 50 50" width="50" xmlns="http://www.w3.org/2000/svg"><path d="m31.4597 7.29159c-.2457.49457-.2849 1.06641-.1091 1.58987s.5522.95572 1.0466 1.20184c2.6629 1.3186 4.9249 3.3252 6.5516 5.8119s2.559 5.3631 2.7003 8.3313c.1413 2.9681-.5135 5.9201-1.8966 8.5501s-3.4441 4.8424-5.9698 6.4081c-2.5256 1.5657-5.4238 2.4276-8.3945 2.4966-2.9708.069-5.9059-.6576-8.5014-2.1043-2.5956-1.4468-4.7571-3.5612-6.2608-6.1242-1.50367-2.5629-2.29477-5.4813-2.29135-8.4529-.01345-3.1065.84924-6.1538 2.48905-8.7923 1.6398-2.6384 3.9904-4.7611 6.7818-6.1243.4973-.24868.8754-.68468 1.0512-1.21213.1758-.52744.1349-1.10313-.1137-1.60041-.2487-.49728-.6847-.87542-1.2121-1.05124-.5274-.17581-1.1031-.1349-1.6004.11374-4.2068 2.09041-7.58364 5.54114-9.58245 9.79224-1.99882 4.2511-2.50227 9.0529-1.42865 13.6261 1.07361 4.5732 3.66128 8.6493 7.343 11.5668 3.6817 2.9175 8.2414 4.5051 12.9389 4.5051 4.6976 0 9.2572-1.5876 12.9389-4.5051 3.6818-2.9175 6.2694-6.9936 7.343-11.5668 1.0737-4.5732.5702-9.375-1.4286-13.6261s-5.3757-7.70184-9.5824-9.79224c-.2472-.12415-.5166-.19785-.7925-.21679-.2759-.01895-.5529.01723-.8147.10643-.2618.08921-.5032.22965-.7101.41313-.207.18348-.3753.40634-.4952.65556zm-8.5417-1.04166v19.97917l-4.7708-4.7917c-.1943-.1942-.4249-.3483-.6787-.4534-.2538-.1052-.5258-.1593-.8005-.1593s-.5467.0541-.8005.1593c-.2538.1051-.4844.2592-.6787.4534-.1942.1943-.3483.4249-.4534.6787-.1052.2538-.1593.5258-.1593.8005s.0541.5467.1593.8005c.1051.2538.2592.4844.4534.6787l8.3334 8.3333c.1981.1897.4317.3383.6875.4375.5072.2084 1.0761.2084 1.5833 0 .2557-.0992.4894-.2478.6875-.4375l8.3333-8.3333c.1953-.1937.3503-.4241.456-.678.1058-.2539.1603-.5262.1603-.8012s-.0545-.5473-.1603-.8012c-.1057-.2539-.2607-.4843-.456-.678-.1937-.1952-.4241-.3502-.6779-.456-.2539-.1058-.5262-.1602-.8012-.1602-.2751 0-.5474.0544-.8013.1602-.2538.1058-.4842.2608-.6779.456l-4.7708 4.7917v-19.97917c0-.55254-.2195-1.08244-.6102-1.47314s-.9206-.6102-1.4732-.6102c-.5525 0-1.0824.2195-1.4731.6102s-.6102.9206-.6102 1.47314z" fill="#2d2b5c"/></svg>