<svg fill="none" height="50" viewBox="0 0 50 50" width="50" xmlns="http://www.w3.org/2000/svg"><path d="m18.5403 42.7084c.2457-.4946.2849-1.0664.1091-1.5899-.1758-.5234-.5522-.9557-1.0466-1.2018-2.6629-1.3186-4.9249-3.3252-6.5516-5.8119-1.62669-2.4867-2.559-5.3631-2.70032-8.3313-.14132-2.9681.51348-5.9201 1.89662-8.5501 1.3831-2.63 3.4441-4.8424 5.9698-6.4081 2.5256-1.56565 5.4238-2.42761 8.3945-2.49658 2.9708-.06897 5.9059.65754 8.5014 2.10428 2.5956 1.4468 4.7571 3.5612 6.2608 6.1242 1.5037 2.5629 2.2948 5.4813 2.2913 8.4529.0135 3.1065-.8492 6.1538-2.489 8.7923-1.6398 2.6384-3.9904 4.7611-6.7818 6.1243-.4973.2487-.8754.6847-1.0512 1.2121-.1758.5275-.1349 1.1032.1137 1.6004.2487.4973.6847.8755 1.2121 1.0513s1.1031.1349 1.6004-.1138c4.2068-2.0904 7.5836-5.5411 9.5825-9.7922 1.9988-4.2511 2.5022-9.0529 1.4286-13.6261s-3.6613-8.6493-7.343-11.56682c-3.6817-2.91748-8.2414-4.50507-12.9389-4.50507-4.6976 0-9.2572 1.58758-12.9389 4.50507-3.68176 2.91752-6.26943 6.99362-7.34304 11.56682-1.07362 4.5732-.57017 9.375 1.42865 13.6261 1.99881 4.2511 5.37569 7.7018 9.58239 9.7922.2472.1242.5166.1979.7925.2168.2759.019.5529-.0172.8147-.1064s.5032-.2297.7101-.4131c.207-.1835.3753-.4064.4952-.6556zm8.5417 1.0417v-19.9792l4.7708 4.7917c.1943.1942.4249.3483.6787.4534.2538.1052.5258.1593.8005.1593s.5467-.0541.8005-.1593c.2538-.1051.4844-.2592.6787-.4534.1942-.1943.3483-.4249.4534-.6787.1052-.2538.1593-.5258.1593-.8005s-.0541-.5467-.1593-.8005c-.1051-.2538-.2592-.4844-.4534-.6787l-8.3334-8.3333c-.1981-.1897-.4317-.3383-.6875-.4375-.5072-.2084-1.0761-.2084-1.5833 0-.2557.0992-.4894.2478-.6875.4375l-8.3333 8.3333c-.1953.1937-.3503.4241-.456.678-.1058.2539-.1603.5262-.1603.8012s.0545.5473.1603.8012c.1057.2539.2607.4843.456.678.1937.1952.4241.3502.6779.456.2539.1058.5262.1602.8012.1602.2751 0 .5474-.0544.8012-.1602.2539-.1058.4843-.2608.678-.456l4.7708-4.7917v19.9792c0 .5525.2195 1.0824.6102 1.4731s.9206.6102 1.4732.6102c.5525 0 1.0824-.2195 1.4731-.6102s.6102-.9206.6102-1.4731z" fill="#2d2b5c"/></svg>