<svg fill="none" height="25" viewBox="0 0 25 25" width="25" xmlns="http://www.w3.org/2000/svg"><path d="m19.6133 9.83341c-.0956-.14136-.2244-.25709-.3751-.33701-.1508-.07991-.3189-.12158-.4895-.12132h-3.125v-2.08333h2.2917c.2762 0 .5412-.10975.7365-.3051.1954-.19535.3051-.4603.3051-.73657v-4.16667c0-.27626-.1097-.54121-.3051-.73656-.1953-.19536-.4603-.3051-.7365-.3051h-3.3334c-1.6023 0-3.139.63653-4.2721 1.76956-1.133 1.13303-1.76954 2.66976-1.76954 4.2721v2.29167h-2.29166c-.27627 0-.54122.10975-.73657.3051s-.3051.46032-.3051.73652v4.1667c0 .2763.10975.5412.3051.7366.19535.1953.4603.3051.73657.3051h2.29166v7.2916c0 .2763.10975.5413.3051.7366.19535.1954.4603.3051.73657.3051h4.99997c.2763 0 .5413-.1097.7366-.3051.1954-.1953.3051-.4603.3051-.7366v-7.2916h1.4583c.2087.0002.4125-.0623.5853-.1793.1727-.117.3063-.2832.3835-.477l1.6666-4.1666c.063-.1578.0864-.3285.0682-.4973-.0181-.1689-.0773-.33073-.1723-.47149zm-3.2396 3.70829h-1.7917c-.2762 0-.5412.1098-.7365.3051-.1954.1954-.3051.4603-.3051.7366v7.2917h-2.9167v-7.2917c0-.2763-.1097-.5412-.3051-.7366-.1953-.1953-.4603-.3051-.73657-.3051h-2.29167v-2.0833h2.29167c.27627 0 .54127-.1097.73657-.3051.1954-.1953.3051-.4603.3051-.7366v-3.33329c.0027-1.04897.4207-2.05419 1.1624-2.79592.7417-.74174 1.747-1.15966 2.7959-1.16241h2.2917v2.08333h-.8333c-.3527-.05138-.7122-.02981-1.0562.06336s-.6653.25597-.9438.47831c-.1691.17698-.3005.38635-.3865.61551-.0859.22915-.1245.47334-.1135.71782v3.33329c0 .2763.1097.5413.3051.7366.1953.1954.4603.3051.7365.3051h2.625z" fill="#1a1930"/></svg>