<svg fill="none" height="21" viewBox="0 0 21 21" width="21" xmlns="http://www.w3.org/2000/svg"><path d="m19.2483 8.46119c-.0552-.16004-.1557-.30062-.2893-.40468s-.2945-.16713-.4632-.18157l-4.9787-.72625-2.2313-4.52375c-.0716-.14793-.1835-.2727-.3228-.35999-.1392-.0873-.3003-.1336-.4647-.1336-.1643 0-.3254.0463-.4647.1336-.13925.08729-.25112.21206-.32277.35999l-2.23125 4.515-4.97875.735c-.16194.02302-.31419.09097-.43947.19614-.12527.10517-.21856.24335-.26928.39886-.04642.15197-.05059.31371-.01205.46786s.11833.2949.2308.40714l3.61375 3.49996-.875 4.97c-.03532.1649-.02226.3365.03761.4941.05988.1576.16402.2946.29991.3944.13588.0998.29771.1583.46602.1683s.33594-.0288.48271-.1118l4.46247-2.3362 4.4625 2.3362c.1228.0693.2615.1055.4025.105.1854.0007.3661-.0575.5163-.1662.1357-.0973.2408-.2313.3028-.3864.0621-.155.0784-.3246.0472-.4886l-.875-4.97 3.6137-3.50001c.1264-.10703.2197-.24771.2693-.40569.0496-.15799.0533-.32679.0107-.48681zm-5.3812 3.50001c-.1013.0983-.1773.2197-.2215.3538-.0441.1341-.0552.2769-.0323.4162l.63 3.675-3.29-1.75c-.1278-.0633-.2686-.0962-.4112-.0962-.1427 0-.2834.0329-.4113.0962l-3.28997 1.75.63-3.675c.02296-.1393.01187-.2821-.03231-.4162-.04419-.1341-.12016-.2555-.22144-.3538l-2.625-2.62501 3.68375-.53375c.14175-.01971.2765-.0739.39244-.1578s.20953-.19496.27256-.32345l1.55747-3.33375 1.645 3.3425c.0631.12849.1567.23955.2726.32345s.2507.13809.3924.1578l3.6838.53375z" fill="#1a1930"/></svg>