<svg fill="none" height="21" viewBox="0 0 21 21" width="21" xmlns="http://www.w3.org/2000/svg"><path d="m16.6172 18.3767h-.875v-1.4586c-.0027-.5007-.0914-.9973-.2621-1.468-.0096-.0257-.0196-.0495-.0314-.074-.1418-.3864-.3375-.7507-.5815-1.0822l-1.2249-1.6337c-.3399-.4552-.524-1.0077-.5251-1.5757v-.8836c.002-.69571.2782-1.36256.7686-1.85597l.5751-.57508c.6681-.67178 1.0974-1.54429 1.2217-2.48358.0005-.01217.007-.02232.007-.0346l-.0024-.01202c.0304-.18631.0488-.37438.055-.56305v-2.04989h.875c.2321 0 .4546-.09219.6187-.25628.1641-.1641.2563-.38666.2563-.61872 0-.23207-.0922-.45463-.2563-.61872-.1641-.164094-.3866-.256281-.6187-.256281h-12.25c-.23207 0-.45463.092187-.61872.256281-.1641.16409-.25628.38665-.25628.61872 0 .23206.09218.45462.25628.61872.16409.16409.38665.25628.61872.25628h.875v2.04989c.00621.18867.02459.37674.05501.56305l-.00247.01206c0 .01225.00651.02243.007.03461.12439.93928.5536 1.81179 1.22176 2.48358l.57508.57507c.49043.4934.7666 1.16024.76861 1.85593v.8836c-.00114.5679-.1851 1.1204-.52466 1.5756l-1.22577 1.6338c-.24391.3316-.43963.6961-.58133 1.0825-.01163.0243-.02163.0478-.03108.0733-.17075.4708-.25942.9675-.26216 1.4684v1.4586h-.875c-.23207 0-.45463.0922-.61872.2563-.1641.1641-.25628.3866-.25628.6187s.09218.4546.25628.6187c.16409.1641.38665.2563.61872.2563h12.25001c.2321 0 .4546-.0922.6187-.2563s.2563-.3866.2563-.6187-.0922-.4546-.2563-.6187-.3866-.2563-.6187-.2563zm-9.62501-13.99999v-1.75h7.00001v1.75zm.76861 2.15589c-.12329-.12387-.23377-.25985-.32977-.40589h6.12227c-.096.14604-.2064.28202-.3297.40589l-.5751.57507c-.6825.67852-1.1202 1.56465-1.2441 2.51904h-1.82442c-.12393-.95442-.56157-1.84058-1.24411-2.51913zm.98182 7.1769c.50629-.6784.8065-1.4883.86474-2.3328h1.76964c.0582.8446.3586 1.6545.8652 2.3328l.8751 1.1672h-5.25044zm5.24958 4.6672h-7.00001v-1.4586c.00243-.0975.01038-.1948.02381-.2914h6.9524c.0134.0966.0214.1939.0238.2914z" fill="#1a1930"/></svg>