<svg fill="none" height="25" viewBox="0 0 25 25" width="25" xmlns="http://www.w3.org/2000/svg"><path d="m18.2306 9.37407c-.9326-.0004-1.8507.23027-2.6724.67143-.0749-.19752-.2082-.36751-.3821-.48743s-.3801-.1841-.5914-.184h-4.1666c-.1368-.00008-.2723.02681-.3988.07913-.12637.05232-.24123.12905-.33797.22579-.09675.09674-.17347.21161-.22579.33801s-.07921.2619-.07914.3987v12.5c-.00008.1368.02681.2723.07913.3988.05232.1264.12905.2412.22579.338.09675.0967.21161.1734.33798.2258.1265.0523.262.0792.3988.0791h4.1666c.1369.0001.2723-.0268.3988-.0791.1264-.0524.2412-.1291.338-.2258.0967-.0968.1735-.2116.2258-.338.0523-.1265.0792-.262.0791-.3988v-5.7291c0-.2763.1097-.5413.3051-.7366.1954-.1954.4603-.3051.7366-.3051.2762 0 .5412.1097.7365.3051.1954.1953.3051.4603.3051.7366v5.7291c0 .1368.0268.2723.0792.3988.0523.1264.129.2412.2258.338.0967.0967.2116.1734.338.2258.1264.0523.2619.0792.3987.0791h4.1667c.1368.0001.2723-.0268.3987-.0791.1264-.0524.2413-.1291.338-.2258.0968-.0968.1735-.2116.2258-.338.0523-.1265.0792-.262.0791-.3988v-7.8125c-.0019-1.5189-.6061-2.975-1.6801-4.049-1.074-1.07403-2.5301-1.67825-4.049-1.68013zm3.6458 12.50003h-2.0833v-4.6875c0-.8288-.3293-1.6237-.9153-2.2097-.5861-.5861-1.3809-.9153-2.2097-.9153s-1.6237.3292-2.2097.9153c-.5861.586-.9153 1.3809-.9153 2.2097v4.6875h-2.0834v-10.4167h2.0834v.7324c.0001.2159.0672.4263.1921.6024.1249.176.3013.3089.505.3804.2036.0715.4245.0779.632.0185s.3914-.1818.5263-.3502c.4675-.5937 1.1087-1.0267 1.8341-1.2383.7255-.2117 1.4989-.1915 2.2123.0576.7134.2492 1.3312.7149 1.7671 1.3321.4359.6173.6682 1.3553.6644 2.1109zm-14.58333-12.50003h-4.16667c-.13681-.00008-.2723.02681-.39872.07913-.12641.05232-.24128.12905-.33802.22579s-.17347.21161-.22579.33801-.07921.2619-.07913.3987v12.5c-.00008.1368.02681.2723.07913.3988.05232.1264.12904.2412.22579.338.09674.0967.2116.1734.33802.2258.12642.0523.26191.0792.39872.0791h4.16667c.13682.0001.27231-.0268.39872-.0791.12642-.0524.24128-.1291.33803-.2258.09674-.0968.17347-.2116.22579-.338.05232-.1265.07921-.262.07913-.3988v-12.5c.00008-.1368-.02682-.2723-.07914-.3987s-.12904-.24127-.22579-.33801c-.09674-.09674-.2116-.17347-.33802-.22579-.12641-.05232-.2619-.07921-.39872-.07913zm-1.04167 12.50003h-2.08333v-10.4167h2.08333zm-1.0264-20.26774c-.45588-.02729-.91254.03843-1.34221.19317-.42968.15474-.82339.39525-1.1572.70693-.33381.31167-.60073.68798-.78454 1.10604-.18381.41807-.28066.86916-.28467 1.32583s.08492.90939.26136 1.33061c.17645.42123.43673.80217.76502 1.11965.32828.31748.71772.56487 1.14461.72712.4269.16225.88233.23598 1.33862.21669h.0295c.45708.02715.91489-.03918 1.34547-.19495.43058-.15576.82488-.39768 1.1588-.71098s.60046-.69139.78332-1.11117c.18286-.41979.27821-.87246.28022-1.33034.002-.45788-.08937-.91136-.26854-1.33274-.17917-.42137-.44238-.80179-.77354-1.118-.33117-.31621-.72333-.56159-1.15252-.72112-.4292-.15953-.88641-.22988-1.34371-.20674zm-.0295 4.64271h-.02951c-.18014.02187-.36288.00498-.53595-.04956-.17307-.05453-.33249-.14544-.46755-.26663-.13506-.12118-.24265-.26985-.31555-.43603-.0729-.16617-.10943-.34601-.10713-.52746 0-.77719.58289-1.27971 1.48519-1.27971.18197-.02426.36704-.00924.54272.04405.17569.05328.33791.1436.47575.26486s.2481.27065.32334.43811.11372.3491.11285.53269c0 .77718-.58288 1.27968-1.48416 1.27968z" fill="#1a1930"/></svg>