<svg fill="none" height="50" viewBox="0 0 50 50" width="50" xmlns="http://www.w3.org/2000/svg"><path d="m6.2513 16.6667h37.5c.5525 0 1.0824-.2195 1.4731-.6102s.6102-.9206.6102-1.4732c0-.5525-.2195-1.0824-.6102-1.4731s-.9206-.6102-1.4731-.6102h-37.5c-.55253 0-1.08244.2195-1.47314.6102s-.61019.9206-.61019 1.4731c0 .5526.21949 1.0825.61019 1.4732s.92061.6102 1.47314.6102zm37.5 16.6666h-37.5c-.55253 0-1.08244.2195-1.47314.6102s-.61019.9206-.61019 1.4732c0 .5525.21949 1.0824.61019 1.4731s.92061.6102 1.47314.6102h37.5c.5525 0 1.0824-.2195 1.4731-.6102s.6102-.9206.6102-1.4731c0-.5526-.2195-1.0825-.6102-1.4732s-.9206-.6102-1.4731-.6102zm0-10.4166h-37.5c-.55253 0-1.08244.2195-1.47314.6102s-.61019.9206-.61019 1.4731.21949 1.0824.61019 1.4731.92061.6102 1.47314.6102h37.5c.5525 0 1.0824-.2195 1.4731-.6102s.6102-.9206.6102-1.4731-.2195-1.0824-.6102-1.4731-.9206-.6102-1.4731-.6102z" fill="#000"/></svg>