<svg fill="none" height="50" viewBox="0 0 50 50" width="50" xmlns="http://www.w3.org/2000/svg"><path d="m27.9379 25 8.9583-8.9375c.3923-.3923.6127-.9244.6127-1.4792s-.2204-1.0869-.6127-1.4792-.9244-.6126-1.4792-.6126-1.0868.2203-1.4791.6126l-8.9375 8.9584-8.9375-8.9584c-.3923-.3923-.9244-.6126-1.4792-.6126s-1.0869.2203-1.4792.6126-.6127.9244-.6127 1.4792.2204 1.0869.6127 1.4792l8.9584 8.9375-8.9584 8.9375c-.1952.1937-.3502.4241-.456.6779-.1058.2539-.1602.5262-.1602.8012 0 .2751.0544.5474.1602.8012.1058.2539.2608.4843.456.678.1937.1953.4241.3503.678.456.2539.1058.5262.1603.8012.1603s.5473-.0545.8012-.1603c.2539-.1057.4843-.2607.678-.456l8.9375-8.9583 8.9375 8.9583c.1936.1953.424.3503.6779.456.2539.1058.5262.1603.8012.1603s.5474-.0545.8012-.1603c.2539-.1057.4843-.2607.678-.456.1953-.1937.3502-.4241.456-.678.1058-.2538.1602-.5261.1602-.8012 0-.275-.0544-.5473-.1602-.8012-.1058-.2538-.2607-.4842-.456-.6779z" fill="#000"/></svg>