<svg fill="none" height="21" viewBox="0 0 21 21" width="21" xmlns="http://www.w3.org/2000/svg"><path d="m16.3709 6.30875c-.0813-.08201-.1781-.14711-.2847-.19153-.1067-.04442-.221-.06729-.3365-.06729-.1156 0-.2299.02287-.3366.06729-.1066.04442-.2034.10952-.2847.19153l-6.51875 6.52755-2.73875-2.7475c-.08446-.0816-.18415-.14578-.2934-.18884-.10925-.04305-.22591-.06416-.34332-.06213s-.23326.02716-.34096.07397c-.10769.04681-.20511.1144-.28669.1988-.08159.0845-.14574.1842-.18879.2934-.04305.1093-.06417.2259-.06214.3433.00203.1175.02717.2333.07398.341.0468.1077.11436.2051.19882.2867l3.36 3.36c.08134.082.17812.1471.28475.1915.10662.0445.22099.0673.3365.0673s.22988-.0228.33651-.0673c.10662-.0444.2034-.1095.28474-.1915l7.14-7.14c.0888-.08194.1597-.18138.2082-.29207s.0735-.23022.0735-.35105c0-.12084-.025-.24037-.0735-.35106s-.1194-.21013-.2082-.29207z" fill="#92e137"/></svg>