<svg fill="none" height="21" viewBox="0 0 21 21" width="21" xmlns="http://www.w3.org/2000/svg"><path d="m18.375 9.625c-.525 0-.875.35-.875.875 0 2.5375-1.3125 4.8125-3.5 6.0375-3.325 1.925-7.6125.7875-9.5375-2.5375s-.7875-7.6125 2.5375-9.5375c2.8875-1.6625 6.3875-1.05 8.575 1.225h-2.1c-.525 0-.875.35-.875.875s.35.875.875.875h3.9375c.525 0 .875-.35.875-.875v-3.9375c0-.525-.35-.875-.875-.875s-.875.35-.875.875v1.575c-1.6625-1.575-3.7625-2.45-6.0375-2.45-4.8125 0-8.75 3.9375-8.75 8.75s3.9375 8.75 8.75 8.75 8.75-3.9375 8.75-8.75c0-.525-.35-.875-.875-.875z" fill="#1a1930"/></svg>