<svg fill="none" height="21" viewBox="0 0 21 21" width="21" xmlns="http://www.w3.org/2000/svg"><path d="m18.655 8.35625-1.6537-.55125.7787-1.5575c.0789-.16302.1053-.34653.0756-.5252-.0298-.17866-.1143-.34369-.2418-.4723l-1.8638-1.86375c-.1293-.12942-.2959-.21507-.4764-.24489s-.3658-.00232-.5298.07864l-1.5575.77875-.5513-1.65375c-.0582-.17238-.1687-.32232-.3161-.42897-.1475-.10664-.3245-.16468-.5064-.16603h-2.625c-.18344-.00047-.36238.05672-.51155.16349-.14916.10677-.261.25772-.3197.43151l-.55125 1.65375-1.5575-.77875c-.16302-.07894-.34653-.10534-.5252-.07557-.17866.02978-.34369.11427-.4723.24182l-1.86375 1.86375c-.12942.1293-.21507.29591-.24489.4764-.02982.1805-.00232.3658.07864.52985l.77875 1.5575-1.65375.55125c-.17238.05822-.32232.16873-.42897.31615-.10664.14741-.16468.32441-.16603.50635v2.625c-.00047.1834.05672.3624.16349.5116.10677.1491.25772.261.43151.3197l1.65375.5512-.77875 1.5575c-.07894.163-.10534.3465-.07557.5252.02978.1787.11427.3437.24182.4723l1.86375 1.8638c.1293.1294.29591.215.4764.2448.1805.0299.3658.0024.52985-.0786l1.5575-.7787.55125 1.6537c.0587.1738.17054.3247.3197.4315.14917.1068.32811.164.51155.1635h2.62505c.1834.0005.3623-.0567.5115-.1635s.261-.2577.3197-.4315l.5513-1.6537 1.5575.7787c.1619.077.3437.1023.5205.0725.1768-.0297.3403-.1131.4682-.2387l1.8638-1.8638c.1294-.1293.215-.2959.2448-.4764.0299-.1805.0024-.3658-.0786-.5298l-.7787-1.5575 1.6537-.5513c.1724-.0582.3223-.1687.429-.3161.1066-.1475.1647-.3245.166-.5064v-2.625c.0005-.18344-.0567-.36238-.1635-.51155-.1068-.14916-.2577-.261-.4315-.3197zm-1.155 2.82625-1.05.35c-.2414.0783-.463.2082-.6492.3807s-.3327.3834-.4293.6182c-.0965.2347-.1409.4877-.1299.7413.0109.2536.0769.5018.1934.7273l.4988.9975-.9625.9625-.9713-.525c-.2244-.1118-.4702-.1741-.7207-.1826-.2506-.0086-.5.0368-.7315.1331-.2315.0962-.4396.2411-.6102.4247-.1707.1837-.2999.4019-.3788.6398l-.35 1.05h-1.3913l-.35-1.05c-.07832-.2414-.20823-.463-.38071-.6492-.17249-.1862-.38342-.3327-.61817-.4293-.23475-.0965-.4877-.1409-.7413-.1299-.25359.0109-.50177.0769-.72732.1934l-.9975.4988-.9625-.9625.525-.9713c.11646-.2255.18246-.4737.19342-.7273s-.03338-.5066-.12995-.7413c-.09656-.2348-.24304-.4457-.42927-.6182-.18622-.1725-.40775-.3024-.6492-.3807l-1.05-.35v-1.365l1.05-.35c.24145-.07832.46298-.20823.6492-.38071.18623-.17249.33271-.38342.42927-.61817.09657-.23475.14091-.4877.12995-.7413-.01096-.25359-.07696-.50177-.19342-.72732l-.49875-.97125.9625-.9625.97125.49875c.22555.11646.47373.18246.72732.19342.2536.01096.50655-.03338.7413-.12995.23475-.09656.44568-.24304.61817-.42927.17248-.18622.30239-.40775.38071-.6492l.35-1.05h1.365l.35 1.05c.0783.24145.2082.46298.3807.6492.1725.18623.3834.33271.6182.42927.2347.09657.4877.14091.7413.12995s.5018-.07696.7273-.19342l.9975-.49875.9625.9625-.525.97125c-.1118.22439-.1741.47018-.1826.72073-.0086.25055.0368.50001.1331.73149.0962.23149.2411.43959.4247.61023.1837.17063.4019.29982.6398.3788l1.05.35zm-7-4.1825c-.69223 0-1.36892.20527-1.94449.58986-.57557.38458-1.02418.93121-1.28909 1.57075-.2649.63954-.33421 1.34329-.19917 2.02219.13505.679.46839 1.3026.95788 1.7921.48948.4895 1.11312.8228 1.79206.9579.67891.135 1.38271.0657 2.02221-.1992s1.1862-.7135 1.5707-1.2891c.3846-.5756.5899-1.2523.5899-1.9445 0-.92826-.3687-1.81849-1.0251-2.47487s-1.5466-1.02513-2.4749-1.02513zm0 5.25c-.3461 0-.68446-.1026-.97225-.2949-.28778-.1923-.51208-.4656-.64454-.7854-.13245-.3198-.16711-.6716-.09958-1.0111.06752-.33947.23419-.65129.47894-.89603.24474-.24475.55656-.41142.89603-.47894.3395-.06753.6913-.03287 1.0111.09958.3198.13246.5931.35676.7854.64454.1923.28779.2949.62615.2949.97225 0 .4641-.1844.9092-.5126 1.2374s-.7733.5126-1.2374.5126z" fill="#1a1930"/></svg>