<svg fill="none" height="21" viewBox="0 0 21 21" width="21" xmlns="http://www.w3.org/2000/svg"><path d="m5.7925 11.445c-.10858.0393-.2072.102-.28885.1836-.08165.0817-.14435.1803-.18365.2889-.06365.159-.07923.3332-.04481.501.03442.1677.11732.3217.23843.4429.12111.1211.27511.204.44289.2384s.34198.0188.50099-.0448c.10604-.0443.2037-.1065.28875-.1838.07729-.085.13944-.1827.18375-.2887.04898-.1039.07296-.2177.07-.3325-.00322-.2317-.09386-.4536-.25375-.6213-.12305-.1214-.2793-.2036-.44904-.2363s-.34536-.0144-.50471.0526zm11.4975-3.50003-1.19-3.52625c-.1815-.51342-.5182-.95768-.9635-1.27123-.4452-.31355-.9769-.48087-1.5215-.47877h-6.23c-.54456-.0021-1.0763.16522-1.52154.47877s-.78194.75781-.96346 1.27123l-1.19 3.5525c-.55971.14657-1.05532.47396-1.40977.93126-.35446.45731-.54789 1.01891-.55023 1.59752v3.5c.00152.5415.17052 1.0694.48382 1.5112.3133.4417.75557.7757 1.26618.9563v1.0325c0 .232.09219.4546.25628.6187.1641.1641.38666.2563.61872.2563s.45462-.0922.61872-.2563c.16409-.1641.25628-.3867.25628-.6187v-.875h10.5v.875c0 .232.0922.4546.2563.6187s.3866.2563.6187.2563.4546-.0922.6187-.2563.2563-.3867.2563-.6187v-1.0325c.5106-.1806.9529-.5146 1.2662-.9563.3133-.4418.4823-.9697.4838-1.5112v-3.5c-.0023-.57861-.1958-1.14021-.5502-1.59752-.3545-.4573-.8501-.78469-1.4098-.93126zm-10.73625-2.975c.0587-.17379.17054-.32474.3197-.43151s.32811-.16396.51155-.16349h6.23c.1908-.00996.3796.04281.5376.15025s.2765.26364.3374.44475l.9188 2.905h-9.81755zm10.94625 9.03003c0 .232-.0922.4546-.2563.6187s-.3866.2563-.6187.2563h-12.25c-.23206 0-.45462-.0922-.61872-.2563-.16409-.1641-.25628-.3867-.25628-.6187v-3.5c0-.2321.09219-.4547.25628-.61875.1641-.16409.38666-.25628.61872-.25628h12.25c.2321 0 .4546.09219.6187.25628.1641.16405.2563.38665.2563.61875zm-2.9575-2.555c-.1086.0393-.2072.102-.2889.1836-.0816.0817-.1443.1803-.1836.2889-.0636.159-.0792.3332-.0448.501.0344.1677.1173.3217.2384.4429.1211.1211.2751.204.4429.2384s.342.0188.501-.0448c.1086-.0393.2072-.102.2889-.1837.0816-.0816.1443-.1802.1836-.2888.049-.1039.073-.2177.07-.3325-.0032-.2317-.0939-.4536-.2538-.6213-.123-.1214-.2792-.2036-.449-.2363-.1697-.0327-.3454-.0144-.5047.0526zm-3.1675-.07h-1.75c-.23206 0-.45462.0922-.61872.2563-.16409.164-.25628.3866-.25628.6187 0 .232.09219.4546.25628.6187.1641.1641.38666.2563.61872.2563h1.75c.2321 0 .4546-.0922.6187-.2563s.2563-.3867.2563-.6187c0-.2321-.0922-.4547-.2563-.6187-.1641-.1641-.3866-.2563-.6187-.2563z" fill="#1a1930"/></svg>