<svg fill="none" height="21" viewBox="0 0 21 21" width="21" xmlns="http://www.w3.org/2000/svg"><path d="m17.385 7.52502c-.0652-.14987-.171-.27848-.3056-.37127-.1345-.09279-.2923-.14604-.4556-.15373h-4.0075l1.1112-4.1475c.0354-.12978.0404-.26598.0146-.398-.0258-.13203-.0817-.25633-.1633-.36325-.0815-.10588-.1862-.19169-.306-.25085-.1198-.05915-.2516-.09007-.3853-.0904h-6.12496c-.19754-.00676-.39155.05355-.55044.17113-.15888.11758-.27328.28548-.32456.47637l-2.345 8.74998c-.03539.1298-.04038.266-.01458.398.0258.1321.08169.2564.16333.3633.08242.107.1885.1936.30995.2528.12144.0592.25495.0894.39005.0884h3.38625l-1.58375 5.8975c-.05189.1902-.03804.3923.03929.5736.07734.1814.21363.3312.3868.4254s.37307.1272.5673.0935c.19424-.0336.37143-.1318.50286-.2787l9.53746-10.50003c.1136-.12435.1889-.27883.2168-.4449.028-.16607.0074-.33668-.0593-.49135zm-8.56621 7.59498.93625-3.5c.0354-.1298.04039-.266.01459-.398s-.08169-.2563-.16334-.3632c-.08151-.1059-.18619-.1917-.30601-.2509-.11983-.0591-.25161-.0901-.38524-.0904h-3.36l1.8725-7.01748h4.31376l-1.1113 4.1475c-.0356.13218-.0398.27088-.0121.40496.0277.13407.0864.25978.1715.36702.0851.10723.1942.193.3185.25041.1243.0574.2603.08484.3971.08011h3.1238z" fill="#1a1930"/></svg>