<svg fill="none" height="25" viewBox="0 0 25 25" width="25" xmlns="http://www.w3.org/2000/svg"><path d="m23.9481 4.11484c.0002-.18399-.0485-.36473-.1409-.52381-.0925-.15908-.2255-.29081-.3854-.38178-.1599-.09098-.3411-.13794-.5251-.13612-.184.00183-.3642.05239-.5223.14652-.6097.3629-1.2661.64082-1.951.82604-.9782-.83934-2.2257-1.29864-3.5146-1.29395-1.414.00163-2.772.55271-3.7873 1.53686-1.0152.98415-1.6083 2.32435-1.654 3.7376-2.78749-.44452-5.31389-1.89945-7.09741-4.08735-.10747-.13038-.24471-.23301-.40015-.29922-.15544-.06622-.32453-.09409-.493-.08125-.16838.01386-.33084.06853-.47334.15928s-.26076.21484-.34454.36155c-.42966.74981-.67642 1.59038-.72026 2.45345-.04383.86307.1165 1.72431.46798 2.51379l-.00203.00203c-.15797.0973-.28834.2335-.37864.39557-.0903.16208-.1375.34461-.13711.53014-.00191.15301.00727.30601.02747.45781.10639 1.3106.68727 2.5375 1.63371 3.4505-.06421.1223-.10339.2562-.11527.3938s.00379.2763.04609.4078c.41262 1.2855 1.29011 2.3709 2.46074 3.0436-1.18933.4599-2.47352.6202-3.73943.4669-.2343-.0294-.47163.0217-.67307.1449s-.35502.3113-.43556.5332c-.08053.222-.08323.4648-.00766.6885.07558.2237.22494.4151.42359.5428 2.17718 1.4022 4.71216 2.1478 7.30184 2.1474 2.93675.0331 5.80205-.9054 8.15025-2.6693s4.0476-4.2544 4.8339-7.0841c.3678-1.2327.5556-2.51205.5575-3.79841 0-.06816 0-.13835-.001-.20853.5438-.58653.9652-1.27573 1.2392-2.02719.2741-.75147.3954-1.55008.3568-2.34903zm-3.4444 3.34574c-.172.20348-.2591.46541-.2431.7314.0102.17188.0091.3448.0091.50761-.0021 1.08702-.1614 2.16801-.473 3.20941-.6422 2.4077-2.0738 4.5303-4.0655 6.0277-1.9918 1.4975-4.4284 2.2832-6.91975 2.2314-.89492.0003-1.78675-.1049-2.65706-.3133 1.1098-.3577 2.14749-.9091 3.06498-1.6286.16898-.1331.29266-.3152.35405-.5213s.05749-.4262-.01116-.63c-.06865-.2039-.1987-.3815-.37229-.5084-.17359-.127-.38222-.1972-.59727-.2009-.8658-.0135-1.69257-.3625-2.30611-.9735.15564-.0295.31027-.0661.46387-.1099.22501-.064.42192-.2019.55902-.3915s.20642-.4197.19679-.6535c-.00964-.2337-.09765-.4575-.24989-.6351-.15223-.1776-.35982-.2989-.58934-.3442-.50256-.0992-.97547-.3131-1.38196-.6248-.40649-.3118-.73561-.713-.96179-1.1727.18826.0257.37772.0417.56763.0478.22561.0034.44645-.065.6306-.1954s.32205-.3159.39377-.5299c.06873-.2159.0652-.4482-.01007-.6619-.07526-.21371-.21815-.39702-.407-.52216-.45818-.30524-.8335-.71935-1.09234-1.20526-.25884-.4859-.39312-1.02841-.39082-1.57895 0-.06917.00204-.13834.00611-.2065 2.33465 2.17735 5.36283 3.46087 8.55103 3.62447.1609.0063.3212-.024.4687-.0886.1475-.0647.2784-.16207.3828-.28473.1033-.12385.1764-.27.2137-.42692.0372-.15693.0375-.32036.0008-.47742-.0595-.24858-.0899-.50326-.0905-.75887.001-.89111.3554-1.74545.9855-2.37556s1.4844-.98451 2.3755-.98545c.4585-.00123.9123.0926 1.3326.27557.4204.18296.7983.45109 1.1099.78746.1201.12925.2713.22562.4392.27993s.3469.06477.52.03037c.4279-.08327.8497-.19543 1.2624-.33569-.2815.57602-.6413 1.11036-1.0691 1.58789z" fill="#1a1930"/></svg>