<svg width="190" height="48" viewBox="0 0 190 48" fill="none" xmlns="http://www.w3.org/2000/svg">
<g clip-path="url(#clip0_403_2867)">
<path d="M61.351 18.6874C61.351 15.279 58.0366 11.659 52.3011 11.659C45.8604 11.659 38.7851 16.3838 37.7038 25.8097C36.599 35.3297 42.5226 39.5608 48.4931 39.5608C54.4637 39.5608 57.59 37.2337 60.7868 34.1309C58.0366 30.6755 54.4872 32.2739 53.8055 32.6265C53.0533 33.0026 52.0896 33.5197 50.1151 33.5197C47.8115 33.5197 45.4608 32.4855 45.4608 28.1838C60.2227 26.7265 61.351 22.0958 61.351 18.6874ZM54.0406 19.2515C53.9466 20.3093 53.5234 22.1193 46.0485 23.13C47.6234 17.5356 50.6322 17.1125 52.0191 17.1125C53.3119 17.1125 54.1346 18.1232 54.0406 19.2515ZM29.0301 20.1683C29.0301 20.1683 25.8567 30.1349 25.5982 30.9576C25.5041 30.1113 23.177 12.2232 23.177 12.2232C17.7706 12.2232 14.8794 16.0782 13.3515 20.1447C13.3515 20.1447 9.49647 30.1349 9.16739 30.9811C9.14388 30.2054 8.57974 20.2623 8.57974 20.2623C8.25065 15.279 3.69046 12.2467 0 12.2467L4.46616 39.3493C10.1311 39.3257 13.1869 35.4942 14.7854 31.4277C14.7854 31.4277 18.1937 22.6129 18.3348 22.2133C18.3583 22.5894 20.7794 39.3493 20.7794 39.3493C26.4679 39.3493 29.5237 35.7528 31.1691 31.8273L39.1377 12.2467C33.5197 12.2467 30.558 16.0782 29.0301 20.1683ZM82.2244 11.612C78.722 11.612 76.0423 13.516 73.7857 16.3133V16.2897L75.8073 0C71.153 0 67.3686 4.04305 66.6399 10.0606L63.1139 39.1377C65.7936 39.1377 68.6379 38.362 70.1658 36.3875C71.5291 38.1504 73.5742 39.5608 76.6065 39.5608C84.4575 39.5608 89.8404 30.4404 89.8404 21.8842C89.7934 14.0802 86.0089 11.612 82.2244 11.612ZM81.4957 25.5982C80.673 30.3699 78.0168 33.6138 75.4547 33.6138C72.869 33.6138 71.7642 32.462 71.7642 32.462C72.2578 28.2779 72.5634 25.7157 73.5037 23.5061C74.4439 21.2965 76.677 17.7706 79.0041 17.7706C81.2842 17.7706 82.3185 20.8029 81.4957 25.5982ZM109.445 12.2467H103.968L103.991 11.9646C104.367 8.39169 105.213 6.5112 108.011 6.20562C109.915 6.01757 110.761 5.03031 110.972 3.94903C111.137 3.10281 111.654 0.164543 111.654 0.164543C100.653 0.0940245 97.1978 4.84226 96.3046 12.0821L96.2811 12.2467H96.1636C94.3771 12.2467 92.4026 14.2682 92.0735 16.8304L91.956 17.7706H95.6229L92.5436 43.2043L91.6034 47.7644C91.7209 47.7644 91.8619 47.788 91.9795 47.788C97.1273 47.5999 100.418 43.5333 101.147 37.6333L103.544 17.7706H105.26C106.953 17.7706 108.927 16.0782 109.28 13.2575L109.445 12.2467ZM137.934 11.7766C131.611 11.7766 125.64 16.4308 123.807 23.7412C121.973 31.0516 124.747 39.7018 134.055 39.7018C143.34 39.7018 148.7 30.699 148.7 23.2005C148.7 15.7491 143.646 11.7766 137.934 11.7766ZM140.496 25.3631C140.167 28.6775 138.71 33.7078 134.714 33.7078C130.694 33.7078 131.258 27.8313 131.658 25.034C132.081 22.0487 133.75 17.7941 137.346 17.7941C140.567 17.7941 140.872 21.6256 140.496 25.3631ZM179.939 20.1683C179.939 20.1683 176.766 30.1349 176.507 30.9576C176.413 30.1113 174.086 12.2232 174.086 12.2232C168.68 12.2232 165.789 16.0782 164.261 20.1447C164.261 20.1447 160.406 30.1349 160.077 30.9811C160.053 30.2054 159.489 20.2623 159.489 20.2623C159.16 15.279 154.6 12.2467 150.909 12.2467L155.352 39.3493C161.017 39.3257 164.073 35.4942 165.671 31.4277C165.671 31.4277 169.08 22.6129 169.197 22.2133C169.244 22.5894 171.642 39.3493 171.642 39.3493C177.33 39.3493 180.386 35.7528 182.031 31.8273L190 12.2467C184.406 12.2467 181.444 16.0782 179.939 20.1683ZM114.616 0.164543L110.009 37.3277L109.068 41.9114C109.186 41.9114 109.327 41.9349 109.445 41.9349C114.404 41.8644 117.93 37.5158 118.588 32.0388L121.245 10.7188C122.044 4.2076 118.165 0.164543 114.616 0.164543Z" fill="#1A1930"/>
</g>
<defs>
<clipPath id="clip0_403_2867">
<rect width="190" height="47.788" fill="white"/>
</clipPath>
</defs>
</svg>
