<?xml version="1.0" encoding="UTF-8"?>
<!DOCTYPE svg PUBLIC "-//W3C//DTD SVG 1.1//EN" "http://www.w3.org/Graphics/SVG/1.1/DTD/svg11.dtd">
<svg xmlns="http://www.w3.org/2000/svg" version="1.1" width="70px" height="70px" style="shape-rendering:geometricPrecision; text-rendering:geometricPrecision; image-rendering:optimizeQuality; fill-rule:evenodd; clip-rule:evenodd" xmlns:xlink="http://www.w3.org/1999/xlink">
<g><path style="opacity:0.772" fill="#6b2ceb" d="M 30.5,9.5 C 51.9049,10.3126 61.0716,21.3126 58,42.5C 50.9537,57.6332 39.4537,62.4666 23.5,57C 8.21095,46.3328 5.71095,33.1661 16,17.5C 20.1189,13.3609 24.9522,10.6942 30.5,9.5 Z M 53.5,43.5 C 53.5,42.8333 53.1667,42.5 52.5,42.5C 51.6422,39.9499 50.6422,37.4499 49.5,35C 47.5273,34.5045 45.5273,34.3379 43.5,34.5C 43.2852,36.1788 43.9519,37.1788 45.5,37.5C 44.4617,39.5195 43.1284,39.8528 41.5,38.5C 40.6093,33.3591 42.276,28.8591 46.5,25C 47.448,24.5172 48.448,24.3505 49.5,24.5C 49.5,23.5 49.5,22.5 49.5,21.5C 39.588,21.397 35.588,26.0636 37.5,35.5C 31.2086,28.1266 23.8752,26.7932 15.5,31.5C 14.1062,32.6869 14.2729,33.3535 16,33.5C 18.5965,32.1063 21.0965,32.273 23.5,34C 26.6902,36.3644 29.6902,38.8644 32.5,41.5C 29.1105,41.5113 26.4438,42.8446 24.5,45.5C 24.8333,45.8333 25.1667,46.1667 25.5,46.5C 30.4656,45.7434 35.4656,45.5767 40.5,46C 43.4351,44.2851 46.2684,42.4517 49,40.5C 50.0111,41.0556 50.8444,41.7222 51.5,42.5C 49.8249,44.456 50.1582,45.7893 52.5,46.5C 41.0765,59.3059 29.2432,59.6392 17,47.5C 9.29576,32.8161 12.7958,21.6495 27.5,14C 44.0644,10.9565 53.731,17.7898 56.5,34.5C 56.2503,37.8673 55.2503,40.8673 53.5,43.5 Z"/></g>
<g><path style="opacity:0.697" fill="#cccdcd" d="M 41.5,38.5 C 40.5084,38.6716 39.8417,38.3382 39.5,37.5C 39.5,36.8333 39.1667,36.5 38.5,36.5C 38.5,35.8333 38.1667,35.5 37.5,35.5C 35.588,26.0636 39.588,21.397 49.5,21.5C 49.5,22.5 49.5,23.5 49.5,24.5C 48.448,24.3505 47.448,24.5172 46.5,25C 42.276,28.8591 40.6093,33.3591 41.5,38.5 Z"/></g>
<g><path style="opacity:1" fill="#3b3433" d="M 37.5,35.5 C 38.1667,35.5 38.5,35.8333 38.5,36.5C 39.1667,36.5 39.5,36.8333 39.5,37.5C 39.8417,38.3382 40.5084,38.6716 41.5,38.5C 43.1284,39.8528 44.4617,39.5195 45.5,37.5C 43.9519,37.1788 43.2852,36.1788 43.5,34.5C 45.5273,34.3379 47.5273,34.5045 49.5,35C 50.6422,37.4499 51.6422,39.9499 52.5,42.5C 52.1667,42.5 51.8333,42.5 51.5,42.5C 50.8444,41.7222 50.0111,41.0556 49,40.5C 46.2684,42.4517 43.4351,44.2851 40.5,46C 35.4656,45.5767 30.4656,45.7434 25.5,46.5C 25.1667,46.1667 24.8333,45.8333 24.5,45.5C 26.4438,42.8446 29.1105,41.5113 32.5,41.5C 29.6902,38.8644 26.6902,36.3644 23.5,34C 21.0965,32.273 18.5965,32.1063 16,33.5C 14.2729,33.3535 14.1062,32.6869 15.5,31.5C 23.8752,26.7932 31.2086,28.1266 37.5,35.5 Z"/></g>
<g><path style="opacity:0.447" fill="#c93235" d="M 51.5,42.5 C 51.8333,42.5 52.1667,42.5 52.5,42.5C 53.1667,42.5 53.5,42.8333 53.5,43.5C 53.7373,44.791 53.404,45.791 52.5,46.5C 50.1582,45.7893 49.8249,44.456 51.5,42.5 Z"/></g>
</svg>
